<?xml version="1.0" encoding="UTF-8"?>
<svg width="37px" height="40px" viewBox="0 0 37 40" version="1.1" xmlns="http://www.w3.org/2000/svg" xmlns:xlink="http://www.w3.org/1999/xlink">
    <title>business-task-icon</title>
    <g id="页面-1" stroke="none" stroke-width="1" fill="none" fill-rule="evenodd">
        <g id="Apple-TV-4K" transform="translate(-1176.000000, -1687.000000)" fill-rule="nonzero">
            <g id="business-task-icon" transform="translate(1176.000000, 1687.000000)">
                <path d="M20,0 L36.4044944,0 L36.4044944,0 L36.4044944,40 L20,40 C8.95430499,40 0,31.045695 0,20 C0,8.95430499 8.95430499,0 20,0 Z" id="矩形" fill-opacity="0.15" fill="#CBCBCB"></path>
                <path d="M19.7752809,1.79775281 L36.4044944,1.79775281 L36.4044944,1.79775281 L36.4044944,37.752809 L19.7752809,37.752809 C9.84656629,37.752809 1.79775281,29.7039955 1.79775281,19.7752809 C1.79775281,9.84656629 9.84656629,1.79775281 19.7752809,1.79775281 Z" id="矩形" fill="#FFFFFF"></path>
                <circle id="椭圆形" stroke="#5D71B1" fill="#C7D5FF" cx="19.6629213" cy="19.6629213" r="9.66292135"></circle>
                <g id="表格-(1)" transform="translate(15.000000, 15.000000)" fill="#5D71B1">
                    <path d="M10,3.57257907 L10,1.42875481 C10,0.639680316 9.36031968,0 8.57124519,0 L1.42875481,0 C0.639680316,0 0,0.639680316 0,1.42875481 L0,8.57124519 C0,9.36031968 0.639680316,10 1.42875481,10 L8.57124519,10 C9.36031968,10 10,9.36031968 10,8.57124519 L10,3.57257907 Z M0.923388605,0.923388605 C1.05732547,0.788756938 1.23952896,0.713260806 1.4294357,0.713705702 L8.57319857,0.713705702 C8.7627116,0.713932269 8.94435978,0.789495059 9.07811959,0.923746892 C9.21187939,1.05799872 9.28677472,1.23992312 9.2863057,1.4294357 L9.2863057,2.8588714 L0.713705676,2.8588714 L0.713705676,1.42944686 C0.713257824,1.23953626 0.788754185,1.05732819 0.923388605,0.923388605 Z M3.92742372,6.07257628 L3.92742372,3.57259023 L6.07257628,3.57259023 L6.07257628,6.07257628 L3.92742372,6.07257628 L3.92742372,6.07257628 Z M6.07257628,6.78628395 L6.07257628,9.28628395 L3.92742372,9.28628395 L3.92742372,6.78628395 L6.07257628,6.78628395 L6.07257628,6.78628395 Z M3.21370767,6.07257628 L0.713707675,6.07257628 L0.713707675,3.57259023 L3.21370767,3.57259023 L3.21370767,6.07257628 L3.21370767,6.07257628 Z M0.923388605,9.07783923 C0.788818291,8.94443728 0.713299205,8.76268493 0.713706026,8.57319857 L0.713706026,6.78629512 L3.21371605,6.78629512 L3.21371605,9.28629512 L1.42944686,9.28629512 C1.23968615,9.28719543 1.05745161,9.21213025 0.923388605,9.07782807 L0.923388605,9.07783923 Z M9.28629512,8.57319857 C9.28665772,8.76243753 9.21164459,8.94403094 9.07783218,9.07784335 C8.94401978,9.21165575 8.76242637,9.28666889 8.57318741,9.28629512 L6.78629512,9.28629512 L6.78629512,6.78629512 L9.28629512,6.78629512 L9.28629512,8.57318741 L9.28629512,8.57319857 Z M9.28629512,6.07258744 L6.78629512,6.07258744 L6.78629512,3.57260139 L9.28629512,3.57260139 L9.28629512,6.07258744 L9.28629512,6.07258744 Z" id="形状"></path>
                </g>
            </g>
        </g>
    </g>
</svg>