<?xml version="1.0" encoding="UTF-8"?>
<svg width="88px" height="90px" viewBox="0 0 88 90" version="1.1" xmlns="http://www.w3.org/2000/svg" xmlns:xlink="http://www.w3.org/1999/xlink">
    <title>data-store</title>
    <g id="页面-1" stroke="none" stroke-width="1" fill="none" fill-rule="evenodd">
        <g id="Apple-TV-4K" transform="translate(-2051.000000, -988.000000)">
            <g id="data-store" transform="translate(2051.000000, 988.000000)">
                <rect id="矩形" fill-opacity="0.15" fill="#CBCBCB" x="0" y="0" width="88" height="90" rx="44"></rect>
                <circle id="椭圆形" fill="#FFFFFF" cx="44" cy="45" r="40"></circle>
                <g id="database-(3)" transform="translate(27.000000, 25.000000)" fill="#5A5D6B" fill-rule="nonzero">
                    <path d="M17.1428571,40 C7.67714286,40 0,37.4385714 0,34.2857143 C0,32.5614286 0,30.6757143 0,28.5714286 C0,28.0742857 0.248571429,27.6028571 0.605714286,27.1428571 C2.51714286,29.6042857 9.16285714,31.4285714 17.1428571,31.4285714 C25.1228571,31.4285714 31.7685714,29.6042857 33.68,27.1428571 C34.0371429,27.6028571 34.2857143,28.0742857 34.2857143,28.5714286 C34.2857143,30.2257143 34.2857143,31.9814286 34.2857143,34.2857143 C34.2857143,37.4385714 26.6071429,40 17.1428571,40 Z M17.1428571,28.5714286 C7.67714286,28.5714286 0,26.01 0,22.8571429 C0,21.1314286 0,19.2485714 0,17.1428571 C0,16.84 0.114285714,16.5457143 0.268571429,16.2542857 L0.268571429,16.2542857 C0.355714286,16.0714286 0.47,15.8914286 0.605714286,15.7142857 C2.51714286,18.1742857 9.16285714,20 17.1428571,20 C25.1228571,20 31.7685714,18.1742857 33.68,15.7142857 C33.8171429,15.8914286 33.9314286,16.0714286 34.0171429,16.2542857 L34.0171429,16.2542857 C34.17,16.5457143 34.2857143,16.84 34.2857143,17.1428571 C34.2857143,18.7971429 34.2857143,20.5514286 34.2857143,22.8571429 C34.2857143,26.01 26.6071429,28.5714286 17.1428571,28.5714286 Z M17.1428571,17.1428571 C7.67714286,17.1428571 0,14.5828571 0,11.4285714 C0,10.5257143 0,9.57142857 0,8.57142857 C0,7.66285714 0,6.72 0,5.71428571 C0,2.56 7.67714286,0 17.1428571,0 C26.6085714,0 34.2857143,2.56 34.2857143,5.71428571 C34.2857143,6.60571429 34.2857143,7.55142857 34.2857143,8.57142857 C34.2857143,9.44571429 34.2857143,10.3685714 34.2857143,11.4285714 C34.2857143,14.5828571 26.6071429,17.1428571 17.1428571,17.1428571 Z M17.1428571,2.85714286 C10.8314286,2.85714286 5.71428571,4.13428571 5.71428571,5.71428571 C5.71428571,7.29428571 10.8314286,8.57142857 17.1428571,8.57142857 C23.4542857,8.57142857 28.5714286,7.29428571 28.5714286,5.71428571 C28.5714286,4.13428571 23.4542857,2.85714286 17.1428571,2.85714286 Z" id="形状"></path>
                </g>
            </g>
        </g>
    </g>
</svg>