<?xml version="1.0" encoding="UTF-8"?>
<svg width="88px" height="90px" viewBox="0 0 88 90" version="1.1" xmlns="http://www.w3.org/2000/svg" xmlns:xlink="http://www.w3.org/1999/xlink">
    <title>end-event</title>
    <g id="页面-1" stroke="none" stroke-width="1" fill="none" fill-rule="evenodd">
        <g id="Apple-TV-4K" transform="translate(-1859.000000, -988.000000)">
            <g id="end-event" transform="translate(1859.000000, 988.000000)">
                <rect id="矩形" fill-opacity="0.15" fill="#CBCBCB" x="0" y="0" width="88" height="90" rx="44"></rect>
                <circle id="椭圆形" fill="#FFFFFF" cx="44" cy="45" r="40"></circle>
                <rect id="矩形" fill="#01B25F" x="26" y="27" width="35" height="35" rx="8"></rect>
                <g id="check-2" transform="translate(31.000000, 33.000000)" fill="#FFFFFF" fill-rule="nonzero">
                    <path d="M11.6338303,13.7335263 L28.3528983,0.495338231 C29.266035,-0.225637706 30.5735624,-0.152022538 31.4000015,0.666893344 C32.1999995,1.46511351 32.1999995,2.75044352 31.4000015,3.54866369 L13.0089379,21.8810608 C12.1654429,22.7166091 11.010487,23.1605807 9.82450427,23.1051751 C8.63852156,23.0497696 7.52998773,22.5000546 6.76806509,21.589506 L0.515636781,14.0481922 C-0.224030412,13.1592155 -0.161113325,11.8522385 0.660525296,11.0384221 C1.49390712,10.2130848 2.8046293,10.118734 3.74762844,10.8162005 L7.76717363,13.7939706 C8.92228701,14.6478625 10.5059712,14.6231061 11.6338303,13.7335263 L11.6338303,13.7335263 Z" id="路径"></path>
                </g>
            </g>
        </g>
    </g>
</svg>