<?xml version="1.0" encoding="UTF-8"?>
<svg width="128px" height="128px" viewBox="0 0 128 128" version="1.1" xmlns="http://www.w3.org/2000/svg" xmlns:xlink="http://www.w3.org/1999/xlink">
    <title>复杂网关</title>
    <g id="页面-1" stroke="none" stroke-width="1" fill="none" fill-rule="evenodd">
        <g id="Apple-TV-4K" transform="translate(-1365.000000, -970.000000)">
            <g id="复杂网关" transform="translate(1365.360390, 970.360390)">
                <g id="gateway" transform="translate(63.639610, 63.639610) rotate(45.000000) translate(-63.639610, -63.639610) translate(18.639610, 18.639610)">
                    <rect id="矩形" fill-opacity="0.25" fill="#CBCBCB" x="0" y="0" width="90" height="90" rx="20"></rect>
                    <rect id="矩形" fill="#FFFFFF" x="5" y="5" width="80" height="80" rx="20"></rect>
                </g>
                <g id="传感器类型-3" transform="translate(42.639610, 42.639610)" fill="#01B25F" fill-rule="nonzero">
                    <path d="M19.7967398,41.997417 C19.3752861,41.997417 19.0336304,41.6504789 19.0336304,41.2225092 L19.0336304,27.501476 C19.0336304,27.0735063 19.3752861,26.7265683 19.7967398,26.7265683 L22.1979909,26.7265683 C22.6194446,26.7265683 22.9611003,27.0735063 22.9611003,27.501476 L22.9611003,41.2250923 C22.9611003,41.653062 22.6194446,42 22.1979909,42 L19.7967398,41.997417 Z M39.034729,39.7837638 L28.8319557,29.8649446 C28.7122763,29.7507083 28.6444031,29.5913303 28.6444031,29.4245387 C28.6444031,29.2577472 28.7122763,29.0983692 28.8319557,28.9841328 L30.7041175,27.1760148 C30.9586387,26.9332625 31.3551529,26.9332625 31.6096741,27.1760148 L41.8124474,37.0948339 C41.9321268,37.2090703 42,37.3684483 42,37.5352398 C42,37.7020314 41.9321268,37.8614094 41.8124474,37.9756457 L39.9402855,39.7837638 C39.6857644,40.026516 39.2892502,40.026516 39.034729,39.7837638 Z M2.05953257,39.7785977 L0.187370707,37.9704797 C0.0678267185,37.8567 0,37.6977441 0,37.5313653 C0,37.3649865 0.0678267185,37.2060306 0.187370707,37.0922509 L10.390144,27.1734317 C10.6433088,26.929722 11.0399921,26.929722 11.2931569,27.1734317 L13.1653188,28.9815498 C13.2848627,29.0953295 13.3526894,29.2542854 13.3526894,29.4206642 C13.3526894,29.5870429 13.2848627,29.7459989 13.1653188,29.8597786 L2.9650891,39.7785977 C2.71158499,40.0239443 2.31303667,40.0239443 2.05953257,39.7785977 L2.05953257,39.7785977 Z M4.09449108,22.90369 C3.67303737,22.90369 3.33138163,22.556752 3.33138163,22.1287823 L3.33138163,19.8660516 C3.33138163,19.4380819 3.67303737,19.0911439 4.09449108,19.0911439 L37.9002396,19.0911439 C38.3216933,19.0911439 38.663349,19.4380819 38.663349,19.8660516 L38.663349,22.1339483 C38.663349,22.561918 38.3216933,22.908856 37.9002396,22.908856 L4.09449108,22.90369 Z M19.7967398,15.2708487 C19.3752861,15.2708487 19.0336304,14.9239107 19.0336304,14.4959409 L19.0336304,0.774907749 C19.0336304,0.346938017 19.3752861,0 19.7967398,0 L22.1979909,0 C22.6194446,0 22.9611003,0.346938017 22.9611003,0.774907749 L22.9611003,14.4959409 C22.9611003,14.9239107 22.6194446,15.2708487 22.1979909,15.2708487 L19.7967398,15.2708487 Z M30.7015739,14.8343173 L28.829412,13.0261993 C28.7097326,12.9119629 28.6418594,12.7525849 28.6418594,12.5857933 C28.6418594,12.4190018 28.7097326,12.2596238 28.829412,12.1453874 L39.0321853,2.21365312 C39.2867065,1.97090094 39.6832206,1.97090094 39.9377418,2.21365312 L41.8099037,4.02177122 C41.9295831,4.13600757 41.9974563,4.29538556 41.9974563,4.46217711 C41.9974563,4.62896867 41.9295831,4.78834665 41.8099037,4.90258301 L31.6071304,14.8214022 C31.3526092,15.0641544 30.956095,15.0641544 30.7015739,14.8214022 L30.7015739,14.8343173 Z M10.3926877,14.8343173 L0.189914425,4.90774904 C0.0696772236,4.79436235 0.00135867554,4.63526004 0.00135867554,4.46863467 C0.00135867554,4.30200929 0.0696772236,4.14290698 0.189914425,4.0295203 L2.06207629,2.22140219 C2.31659747,1.97865002 2.71311163,1.97865002 2.96763281,2.22140219 L13.1704061,12.1402214 C13.2899501,12.2540011 13.3577768,12.412957 13.3577768,12.5793358 C13.3577768,12.7457145 13.2899501,12.9046705 13.1704061,13.0184502 L11.2982443,14.8265682 C11.0447402,15.0719147 10.6461918,15.0719147 10.3926877,14.8265682 L10.3926877,14.8343173 Z" id="形状"></path>
                </g>
            </g>
        </g>
    </g>
</svg>