<?xml version="1.0" encoding="UTF-8"?>
<svg width="37px" height="40px" viewBox="0 0 37 40" version="1.1" xmlns="http://www.w3.org/2000/svg" xmlns:xlink="http://www.w3.org/1999/xlink">
    <title>custom-task-icon</title>
    <g id="页面-1" stroke="none" stroke-width="1" fill="none" fill-rule="evenodd">
        <g id="Apple-TV-4K" transform="translate(-1176.000000, -1618.000000)" fill-rule="nonzero">
            <g id="custom-task-icon" transform="translate(1176.000000, 1618.000000)">
                <path d="M20,0 L36.4044944,0 L36.4044944,0 L36.4044944,40 L20,40 C8.95430499,40 0,31.045695 0,20 C0,8.95430499 8.95430499,0 20,0 Z" id="矩形" fill-opacity="0.15" fill="#CBCBCB"></path>
                <path d="M19.7752809,1.79775281 L36.4044944,1.79775281 L36.4044944,1.79775281 L36.4044944,37.752809 L19.7752809,37.752809 C9.84656629,37.752809 1.79775281,29.7039955 1.79775281,19.7752809 C1.79775281,9.84656629 9.84656629,1.79775281 19.7752809,1.79775281 Z" id="矩形" fill="#FFFFFF"></path>
                <circle id="椭圆形" stroke="#FF2B4D" fill="#FFB3BF" cx="20" cy="20" r="9.66292135"></circle>
                <g id="手工" transform="translate(16.000000, 15.000000)" fill="#FF2B4D">
                    <path d="M7.20076596,6.73788675 L7.20076596,6.73788675 L7.20076596,6.73788675 C7.17411055,6.72265509 7.14618585,6.71123134 7.11953045,6.6985383 L6.79966565,6.54368311 C6.02412044,6.12481254 5.3501196,5.54600956 4.81320369,4.85296916 C4.83732048,4.82250584 4.86143727,4.79077323 4.88555406,4.76030991 L4.88555406,4.76030991 C5.87053456,3.55700899 6.56865217,2.14427278 6.92786543,0.6312615 L6.96467527,0.473867707 C6.9976772,0.334244179 6.95071292,0.188274137 6.8415527,0.0943455769 C6.66258073,-0.0605096029 6.3884109,-0.0198918484 6.26274973,0.180658299 L4.05289013,3.70551766 L1.84176122,0.180658312 C1.71610004,-0.019891836 1.44193021,-0.0605095905 1.26295824,0.0943455893 C1.15506734,0.188274137 1.10683375,0.334244191 1.13983568,0.473867719 L1.17664552,0.631261512 C1.53585877,2.14427279 2.23397639,3.557009 3.21768759,4.76157923 L3.21768759,4.76157923 C3.24307368,4.79204254 3.26592117,4.82377516 3.29003796,4.85423847 C2.75566065,5.54727888 2.08039052,6.12481254 1.30611461,6.54368311 L0.988788411,6.69726899 C0.960863708,6.70996204 0.932939005,6.72265508 0.907552902,6.73661743 L0.906283602,6.73661743 L0.906283602,6.73661743 C0.366829079,7.03109614 0,7.60355259 0,8.26232177 C0,9.22191618 0.778083825,10 1.73767823,10 C2.67569446,10 3.43854662,9.2549181 3.47154855,8.32578701 L3.47408716,8.32832563 C3.52739797,7.5489725 3.72540951,6.78992824 4.05289014,6.08927201 C4.37910147,6.78992824 4.57838231,7.54770319 4.63169312,8.32832563 L4.63550103,8.32578701 C4.66850296,9.2561874 5.43135512,10 6.36937135,10 C7.32896576,10 8.10704958,9.22191618 8.10704958,8.26232177 C8.10704958,7.60609121 7.74022048,7.03363475 7.20076596,6.73788675 Z M1.73640892,9.33996153 C1.14237429,9.33996153 0.661307774,8.85889502 0.661307774,8.26486038 C0.661307774,7.67082575 1.14237428,7.18975923 1.73640892,7.18975923 C2.33044356,7.18975923 2.81151256,7.67082574 2.81151256,8.26486038 C2.81277937,8.85889501 2.33044355,9.33996153 1.73640892,9.33996153 Z M6.36937133,9.33996153 C5.7753367,9.33996153 5.29427018,8.85889502 5.29427018,8.26486038 C5.29427018,7.67082575 5.77533669,7.18975923 6.36937133,7.18975923 C6.96340597,7.18975923 7.44447247,7.67082574 7.44447247,8.26486038 C7.44447247,8.85889501 6.96340596,9.33996153 6.36937133,9.33996153 Z" id="形状"></path>
                </g>
            </g>
        </g>
    </g>
</svg>