<?xml version="1.0" encoding="UTF-8"?>
<svg width="88px" height="90px" viewBox="0 0 88 90" version="1.1" xmlns="http://www.w3.org/2000/svg" xmlns:xlink="http://www.w3.org/1999/xlink">
    <title>object</title>
    <g id="页面-1" stroke="none" stroke-width="1" fill="none" fill-rule="evenodd">
        <g id="Apple-TV-4K" transform="translate(-2435.000000, -990.000000)">
            <g id="object" transform="translate(2435.000000, 990.000000)">
                <rect id="矩形" fill-opacity="0.15" fill="#CBCBCB" x="0" y="0" width="88" height="90" rx="44"></rect>
                <circle id="椭圆形" fill="#FFFFFF" cx="44" cy="45" r="40"></circle>
                <g id="ic_data_object" transform="translate(19.000000, 25.000000)" fill="#A0A9D5" fill-rule="nonzero">
                    <path d="M5,12.5 C5,13.875 3.87500004,15 2.5,15 C1.125,15 2.13162821e-15,16.125 2.13162821e-15,17.5 L2.13162821e-15,22.5 C2.13162821e-15,23.875 1.125,25 2.5,25 C3.87500004,25 5,26.125 5,27.5 L5,32.5 C5,36.65 8.35000003,40 12.5,40 L17.5,40 C18.8750001,40 20,38.875 20,37.5 C20,36.1250001 18.8750001,35 17.5,35 L12.5,35 C11.125,35 10,33.875 10,32.5 L10,27.5 C10,24.25 7.90000003,21.45 5,20.425 L5,19.575 C7.90000003,18.55 10,15.75 10,12.5 L10,7.5 C10,6.12499999 11.125,5 12.5,5 L17.5,5 C18.8750001,5 20,3.87499998 20,2.5 C20,1.12499994 18.8750001,0 17.5,0 L12.5,0 C8.35000003,0 5,3.34999998 5,7.5 L5,12.5 Z M45,12.5 L45,7.5 C45,3.34999998 41.6500001,0 37.5,0 L32.5,0 C31.125,0 30,1.125 30,2.5 C30,3.87499993 31.125,5 32.5,5 L37.5,5 C38.8750001,5 40,6.12499999 40,7.5 L40,12.5 C40,15.75 42.1000001,18.55 45,19.575 L45,20.425 C42.1000001,21.45 40,24.225 40,27.5 L40,32.5 C40,33.875 38.8750001,35 37.5,35 L32.5,35 C31.125,35 30,36.125 30,37.5 C30,38.8750001 31.125,40 32.5,40 L37.5,40 C41.6500001,40 45,36.65 45,32.5 L45,27.5 C45,26.125 46.125,25 47.5,25 C48.8750001,25 50,23.875 50,22.5 L50,17.5 C50,16.125 48.8750001,15 47.5,15 C46.125,15 45,13.875 45,12.5 Z" id="形状"></path>
                </g>
                <text id="OB" font-family="PingFangSC-Semibold, PingFang SC" font-size="20" font-weight="500" fill="#A0A9D5">
                    <tspan x="29" y="52">OB</tspan>
                </text>
            </g>
        </g>
    </g>
</svg>