<?xml version="1.0" encoding="UTF-8"?>
<svg width="37px" height="40px" viewBox="0 0 37 40" version="1.1" xmlns="http://www.w3.org/2000/svg" xmlns:xlink="http://www.w3.org/1999/xlink">
    <title>script-task-icon</title>
    <g id="页面-1" stroke="none" stroke-width="1" fill="none" fill-rule="evenodd">
        <g id="Apple-TV-4K" transform="translate(-1176.000000, -1411.000000)" fill-rule="nonzero">
            <g id="script-task-icon" transform="translate(1176.000000, 1411.000000)">
                <path d="M20,0 L36.4044944,0 L36.4044944,0 L36.4044944,40 L20,40 C8.95430499,40 0,31.045695 0,20 C0,8.95430499 8.95430499,0 20,0 Z" id="矩形" fill-opacity="0.15" fill="#CBCBCB"></path>
                <path d="M19.7752809,1.79775281 L36.4044944,1.79775281 L36.4044944,1.79775281 L36.4044944,37.752809 L19.7752809,37.752809 C9.84656629,37.752809 1.79775281,29.7039955 1.79775281,19.7752809 C1.79775281,9.84656629 9.84656629,1.79775281 19.7752809,1.79775281 Z" id="矩形" fill="#FFFFFF"></path>
                <circle id="椭圆形" stroke="#FF6B3B" fill="#FFC4B1" cx="20" cy="20" r="9.66292135"></circle>
                <g id="config-script-16" transform="translate(15.000000, 15.000000)" fill="#FF6B3B">
                    <path d="M8.92857143,0 L2.5,0 C1.90952381,0 1.42857143,0.480952377 1.42857143,1.07142857 L1.42857143,7.14285714 L1.07142857,7.14285714 C0.480952377,7.14285714 0,7.62380952 0,8.21428571 L0,8.92857143 C0,9.51904762 0.480952377,10 1.07142857,10 L7.5,10 C8.09047619,10 8.57142857,9.51904762 8.57142857,8.92857143 L8.57142857,2.85714286 L8.92857143,2.85714286 C9.51904762,2.85714286 10,2.37619048 10,1.78571429 L10,1.07142857 C10,0.480952377 9.51904762,0 8.92857143,0 Z M2.5,9.28571429 L1.07142857,9.28571429 C0.87380952,9.28571429 0.714285714,9.125 0.714285714,8.92857143 L0.714285714,8.21428571 C0.714285714,8.01785714 0.87380952,7.85714286 1.07142857,7.85714286 L6.07142857,7.85714286 C6.26785714,7.85714286 6.42857143,8.01785714 6.42857143,8.21428571 L6.42857143,8.92857143 C6.42857143,9.05357143 6.45,9.17380952 6.48928571,9.28571429 L2.5,9.28571429 Z M7.85714286,8.92857143 C7.85714286,9.125 7.69642857,9.28571429 7.5,9.28571429 C7.30357143,9.28571429 7.14285714,9.125 7.14285714,8.92857143 L7.14285714,8.21428571 C7.14285714,7.62380952 6.66190477,7.14285714 6.07142857,7.14285714 L2.14285714,7.14285714 L2.14285714,1.07142857 C2.14285714,0.87380952 2.30238095,0.714285714 2.5,0.714285714 L7.91785714,0.714285714 C7.87857143,0.82619048 7.85714286,0.946428571 7.85714286,1.07142857 L7.85714286,8.92857143 Z M9.28571429,1.78571429 C9.28571429,1.98333334 9.125,2.14285714 8.92857143,2.14285714 L8.57142857,2.14285714 L8.57142857,1.07142857 C8.57142857,0.87380952 8.73214286,0.714285714 8.92857143,0.714285714 C9.125,0.714285714 9.28571429,0.87380952 9.28571429,1.07142857 L9.28571429,1.78571429 Z" id="形状"></path>
                    <path d="M6.78571429,2.14285714 L3.21428571,2.14285714 C3.01666666,2.14285714 2.85714286,2.30238095 2.85714286,2.5 C2.85714286,2.69761905 3.01666666,2.85714286 3.21428571,2.85714286 L6.78571429,2.85714286 C6.98333334,2.85714286 7.14285714,2.69761905 7.14285714,2.5 C7.14285714,2.30238095 6.98333334,2.14285714 6.78571429,2.14285714 Z M6.78571429,4.28571429 L3.21428571,4.28571429 C3.01666666,4.28571429 2.85714286,4.44523809 2.85714286,4.64285714 C2.85714286,4.84047619 3.01666666,5 3.21428571,5 L6.78571429,5 C6.98333334,5 7.14285714,4.84047619 7.14285714,4.64285714 C7.14285714,4.44523809 6.98333334,4.28571429 6.78571429,4.28571429 Z" id="形状"></path>
                </g>
            </g>
        </g>
    </g>
</svg>