<?xml version="1.0" encoding="UTF-8"?>
<svg width="37px" height="40px" viewBox="0 0 37 40" version="1.1" xmlns="http://www.w3.org/2000/svg" xmlns:xlink="http://www.w3.org/1999/xlink">
    <title>send-task-icon</title>
    <g id="页面-1" stroke="none" stroke-width="1" fill="none" fill-rule="evenodd">
        <g id="Apple-TV-4K" transform="translate(-1176.000000, -1480.000000)" fill-rule="nonzero">
            <g id="send-task-icon" transform="translate(1176.000000, 1480.000000)">
                <path d="M20,0 L36.4044944,0 L36.4044944,0 L36.4044944,40 L20,40 C8.95430499,40 0,31.045695 0,20 C0,8.95430499 8.95430499,0 20,0 Z" id="矩形" fill-opacity="0.15" fill="#CBCBCB"></path>
                <path d="M19.7752809,1.79775281 L36.4044944,1.79775281 L36.4044944,1.79775281 L36.4044944,37.752809 L19.7752809,37.752809 C9.84656629,37.752809 1.79775281,29.7039955 1.79775281,19.7752809 C1.79775281,9.84656629 9.84656629,1.79775281 19.7752809,1.79775281 Z" id="矩形" fill="#FFFFFF"></path>
                <circle id="椭圆形" stroke="#FFAF3D" fill="#FFEBCE" cx="20" cy="20" r="9.66292135"></circle>
                <g id="发送" transform="translate(15.000000, 15.000000)" fill="#FFAF3D">
                    <path d="M9.89379395,0.21283979 C9.78087436,0.0407136173 9.60048395,-0.0356412252 9.42828821,0.0158026146 L0.350926247,2.6625707 C0.193258299,2.71316564 0.06793076,2.86408404 0.0203583165,3.06063789 C-0.027214127,3.25719173 0.00987029642,3.47086516 0.11817338,3.62422977 L1.58218893,5.73870339 L0.949101128,8.67955681 C0.895947371,8.92166545 0.970378911,9.1797013 1.13436373,9.32181671 C1.29834856,9.46393211 1.5156724,9.45874244 1.67529009,9.30889944 L6.09759463,5.19170465 C6.23147353,5.06667543 6.30239142,4.86089938 6.28363422,4.65189034 C6.26487703,4.44288131 6.1592944,4.26239274 6.0066583,4.17841293 C5.85402221,4.09443312 5.67752169,4.11972061 5.5436428,4.24474984 L2.18967392,7.35323192 L2.5364757,5.7504668 C2.57774222,5.55939008 2.54012505,5.35490208 2.43639197,5.20640891 L1.32150572,3.58893953 L8.74166724,1.42447141 L6.30474469,8.52957328 L5.3737332,7.74436542 C5.23589447,7.61337143 5.05203005,7.58940968 4.89593163,7.68209692 C4.7398332,7.77478416 4.63708899,7.96892674 4.62893409,8.18660799 C4.62077919,8.40428924 4.70855039,8.60982603 4.85702182,8.72072876 L6.25353905,9.89707013 C6.3286389,9.96340936 6.41793558,9.99930891 6.50956721,10 C6.55440699,9.99939916 6.59899807,9.99149161 6.64223634,9.97647317 C6.77409843,9.92599709 6.88148902,9.80430777 6.93550496,9.64415673 L9.96129228,0.821596449 C10.0311816,0.618784648 10.005102,0.383577234 9.89379395,0.21283979 Z" id="路径"></path>
                </g>
            </g>
        </g>
    </g>
</svg>