<?xml version="1.0" encoding="UTF-8"?>
<svg width="37px" height="40px" viewBox="0 0 37 40" version="1.1" xmlns="http://www.w3.org/2000/svg" xmlns:xlink="http://www.w3.org/1999/xlink">
    <title>service-task-icon</title>
    <g id="页面-1" stroke="none" stroke-width="1" fill="none" fill-rule="evenodd">
        <g id="Apple-TV-4K" transform="translate(-1176.000000, -1342.000000)" fill-rule="nonzero">
            <g id="service-task-icon" transform="translate(1176.000000, 1342.000000)">
                <path d="M20,0 L36.4044944,0 L36.4044944,0 L36.4044944,40 L20,40 C8.95430499,40 0,31.045695 0,20 C0,8.95430499 8.95430499,0 20,0 Z" id="矩形" fill-opacity="0.15" fill="#CBCBCB"></path>
                <path d="M19.7752809,1.79775281 L36.4044944,1.79775281 L36.4044944,1.79775281 L36.4044944,37.752809 L19.7752809,37.752809 C9.84656629,37.752809 1.79775281,29.7039955 1.79775281,19.7752809 C1.79775281,9.84656629 9.84656629,1.79775281 19.7752809,1.79775281 Z" id="矩形" fill="#FFFFFF"></path>
                <circle id="椭圆形" stroke="#004CD8" fill="#86B1FF" cx="20" cy="20" r="9.66292135"></circle>
                <g id="服务流" transform="translate(14.730337, 14.280899)" fill="#004CD8">
                    <path d="M10.45,7.05294117 C10.3846875,6.92352942 10.2540625,6.85882351 10.1234375,6.79411766 C9.796875,6.6 9.4703125,6.6 9.14375,6.66470591 L9.14375,4.33529412 C9.4703125,4.40000001 9.796875,4.40000001 10.1234375,4.20588236 C10.2540625,4.14117647 10.3846875,4.01176471 10.45,3.94705882 L10.45,7.05294117 L10.45,7.05294117 Z M9.0784375,9.18823527 L6.4659375,10.6117647 L6.4659375,10.3529412 C6.4659375,10.0294118 6.3353125,9.70588234 6.139375,9.44705883 L8.1640625,8.28235293 C8.229375,8.60588234 8.490625,8.86470591 8.751875,9.05882351 C8.8825,9.12352942 9.013125,9.12352942 9.0784375,9.18823527 Z M0,3.94705882 C0.0653125049,4.01176471 0.1959375,4.14117647 0.326562495,4.20588236 C0.653124989,4.40000001 0.9796875,4.40000001 1.30624999,4.33529412 L1.30624999,6.66470591 C0.9796875,6.6 0.653124989,6.6 0.326562495,6.79411766 C0.1959375,6.85882351 0.0653124901,6.98823527 0,7.05294117 L0,3.94705882 Z M1.3715625,1.81176471 L3.98406249,0.388235294 L3.98406249,0.64705883 C3.98406249,0.970588234 4.11468749,1.29411765 4.310625,1.55294118 L2.22062499,2.71764706 C2.15531248,2.39411765 1.95937498,2.13529412 1.63281249,1.94117647 C1.56749998,1.87647058 1.43687499,1.87647058 1.3715625,1.81176471 L1.3715625,1.81176471 Z M1.3715625,9.18823527 C1.43687501,9.18823527 1.5675,9.12352942 1.63281249,9.05882351 C1.95937498,8.86470591 2.15531248,8.60588234 2.22062499,8.28235293 L4.2453125,9.44705883 C4.049375,9.70588234 3.91875,10.0294118 3.91875,10.3529412 L3.91875,10.6117647 L1.3715625,9.18823527 Z M9.0784375,1.81176471 C9.013125,1.81176471 8.8825,1.8764706 8.8171875,1.94117647 C8.490625,2.13529412 8.2946875,2.39411765 8.229375,2.71764706 L6.2046875,1.55294118 C6.400625,1.29411764 6.53125,0.970588234 6.53125,0.64705883 L6.53125,0.388235294 L9.0784375,1.81176471 Z M4.70250001,3.29999999 L4.70250001,2.9117647 L5.6821875,2.9117647 L5.6821875,3.29999999 C6.139375,3.42941175 6.5965625,3.6235294 6.8578125,4.0117647 L7.184375,3.81764706 L7.706875,4.65882353 L7.3803125,4.85294117 C7.445625,5.04705882 7.5109375,5.30588235 7.5109375,5.5647059 C7.5109375,5.82352941 7.445625,6.01764707 7.3803125,6.27647059 L7.706875,6.47058824 L7.184375,7.31176468 L6.8578125,7.11764707 C6.53125,7.44117649 6.139375,7.7 5.6821875,7.82941175 L5.6821875,8.08823532 L4.70250001,8.08823532 L4.70250001,7.7 C4.2453125,7.57058824 3.78812501,7.37647058 3.526875,6.98823527 L3.20031249,7.18235292 L2.67781249,6.34117649 L3.00437499,6.14705883 C2.93906249,5.95294117 2.87374999,5.69411766 2.87374999,5.43529411 C2.87374999,5.17647058 2.9390625,4.98235293 3.00437499,4.72352941 L2.67781249,4.52941177 L3.20031249,3.68823529 L3.526875,3.88235294 C3.85343749,3.6235294 4.2453125,3.36470588 4.70250001,3.29999999 Z M5.225,6.79411766 C5.9434375,6.79411766 6.53125,6.21176468 6.53125,5.5 C6.53125,4.7882353 5.9434375,4.20588236 5.225,4.20588236 C4.50656251,4.20588236 3.91875,4.7882353 3.91875,5.5 C3.91875,6.21176468 4.50656251,6.79411766 5.225,6.79411766 Z M5.225,6.14705883 C4.833125,6.14705883 4.57187499,5.88823532 4.57187499,5.5 C4.57187499,5.11176471 4.833125,4.85294117 5.225,4.85294117 C5.616875,4.85294117 5.878125,5.11176471 5.878125,5.5 C5.878125,5.88823532 5.616875,6.14705883 5.225,6.14705883 L5.225,6.14705883 Z M5.225,1.29411765 C4.833125,1.29411765 4.57187499,1.03529412 4.57187499,0.64705883 C4.57187499,0.258823534 4.833125,0 5.225,0 C5.616875,0 5.878125,0.258823534 5.878125,0.64705883 C5.878125,1.03529412 5.616875,1.29411765 5.225,1.29411765 L5.225,1.29411765 Z M5.225,11 C4.833125,11 4.57187499,10.7411765 4.57187499,10.3529412 C4.57187499,9.96470591 4.833125,9.70588234 5.225,9.70588234 C5.616875,9.70588234 5.878125,9.96470591 5.878125,10.3529412 C5.878125,10.7411765 5.616875,11 5.225,11 L5.225,11 Z M8.8825,3.36470588 C8.6865625,3.04117648 8.8171875,2.65294119 9.14375,2.45882354 C9.4703125,2.26470589 9.8621875,2.39411765 10.058125,2.71764706 C10.2540625,3.04117646 10.1234375,3.42941176 9.796875,3.62352942 C9.4703125,3.81764706 9.0784375,3.6882353 8.8825,3.36470588 Z M0.391875,8.21764708 C0.1959375,7.89411766 0.326562495,7.50588234 0.653124989,7.31176474 C0.979687484,7.11764708 1.37156248,7.24705883 1.5675,7.57058825 C1.7634375,7.89411766 1.63281251,8.28235293 1.30624999,8.47647059 C0.979687484,8.67058825 0.5878125,8.54117649 0.391875,8.21764708 Z M1.5675,3.36470588 C1.3715625,3.68823529 0.9796875,3.81764706 0.653124989,3.62352942 C0.326562495,3.42941177 0.26124999,3.04117648 0.391875,2.71764706 C0.5878125,2.45882352 0.9796875,2.32941176 1.30624999,2.52352941 C1.63281249,2.71764706 1.69812499,3.10588235 1.5675,3.36470588 Z M10.058125,8.21764708 C9.8621875,8.54117649 9.4703125,8.60588234 9.14375,8.47647059 C8.8171875,8.28235293 8.751875,7.89411766 8.8825,7.57058824 C9.013125,7.24705883 9.4703125,7.18235293 9.796875,7.31176474 C10.1234375,7.57058824 10.18875,7.95882351 10.058125,8.21764708 Z" id="形状"></path>
                </g>
            </g>
        </g>
    </g>
</svg>