<?xml version="1.0" encoding="UTF-8"?>
<svg width="37px" height="40px" viewBox="0 0 37 40" version="1.1" xmlns="http://www.w3.org/2000/svg" xmlns:xlink="http://www.w3.org/1999/xlink">
    <title>sub-process-icon</title>
    <g id="页面-1" stroke="none" stroke-width="1" fill="none" fill-rule="evenodd">
        <g id="Apple-TV-4K" transform="translate(-1176.000000, -1756.000000)" fill-rule="nonzero">
            <g id="sub-process-icon" transform="translate(1176.000000, 1756.000000)">
                <path d="M20,0 L36.4044944,0 L36.4044944,0 L36.4044944,40 L20,40 C8.95430499,40 0,31.045695 0,20 C0,8.95430499 8.95430499,0 20,0 Z" id="矩形" fill-opacity="0.15" fill="#CBCBCB"></path>
                <path d="M19.7752809,1.79775281 L36.4044944,1.79775281 L36.4044944,1.79775281 L36.4044944,37.752809 L19.7752809,37.752809 C9.84656629,37.752809 1.79775281,29.7039955 1.79775281,19.7752809 C1.79775281,9.84656629 9.84656629,1.79775281 19.7752809,1.79775281 Z" id="矩形" fill="#FFFFFF"></path>
                <circle id="椭圆形" stroke="#6E42F3" fill="#D7CAFF" cx="20" cy="20" r="9.66292135"></circle>
                <g id="子流程" transform="translate(15.000000, 15.000000)" fill="#6E42F3">
                    <path d="M8.76986543,4.68957015 L5.2311478,4.68957015 L5.2311478,3.76642642 C6.15429153,3.61256913 6.84357218,2.76943119 6.84357218,1.84628746 C6.84357218,0.849292231 5.99427995,0 4.99728472,0 C3.9202837,0 2.99713998,0.849292231 2.99713998,1.92013896 C2.99713998,2.84328269 3.68642063,3.61256913 4.60956436,3.84027791 L4.60956436,4.76342164 L1.15700681,4.76342164 L1.15700681,6.99127518 C0.541577655,7.14513247 0,7.68055583 0,8.37599077 L0,8.52984806 C0,9.2991345 0.689280651,9.99456945 1.46472138,9.99456945 C2.31401362,9.99456945 3.00329427,9.30528879 3.00329427,8.45599656 C3.00329427,7.76671591 2.5417224,7.15128676 1.84628746,6.99127518 L1.84628746,5.4527023 L4.69572444,5.4527023 L4.69572444,6.99127518 C4.00644379,7.14513247 3.53871763,7.76056162 3.53871763,8.52984806 C3.53871763,9.2991345 4.22799828,9.91456366 4.99728472,9.99456945 C5.84657695,9.99456945 6.53585761,9.37914029 6.53585761,8.52984806 C6.53585761,7.84056741 6.07428574,7.22513826 5.3788508,7.07128097 L5.3788508,5.53270809 L8.22213348,5.53270809 L8.22213348,7.07128097 C7.53285283,7.22513826 7.06512668,7.84056741 7.06512668,8.52984806 C7.06512668,9.37914029 7.75440733,10.0684209 8.60369956,9.99456945 C9.372986,9.99456945 9.98841515,9.30528879 10.0684209,8.52984806 C10.0684209,7.76056162 9.60684908,7.14513247 8.91141414,6.99127518 L8.91141414,4.68957015 L8.76986543,4.68957015 Z M2.23400783,8.38214506 C2.23400783,8.84371693 1.92629325,9.2314373 1.46472138,9.15143151 C1.08315531,9.15143151 0.769286441,8.84371693 0.769286441,8.46215085 C0.769286441,8.00057899 1.07700102,7.61285862 1.53857288,7.69286441 C1.92629325,7.68671012 2.15400204,7.9944247 2.23400783,8.38214506 Z M5.69271967,8.38214506 C5.69271967,8.84371693 5.38500509,9.2314373 4.92343322,9.15143151 C4.54186715,9.15143151 4.23415257,8.84371693 4.23415257,8.46215085 C4.23415257,8.00057899 4.54186715,7.61285862 5.00343901,7.69286441 C5.38500509,7.68671012 5.69271967,7.9944247 5.69271967,8.38214506 Z M3.77258071,1.92013896 C3.77258071,1.23085831 4.30800407,0.689280651 5.00343901,0.689280651 C5.61886817,0.689280651 6.08044003,1.23085831 6.08044003,1.76628167 C6.08044003,2.45556232 5.53886238,2.99713998 4.84958173,2.99713998 C4.30800407,2.99713998 3.84643221,2.53556811 3.77258071,1.92013896 Z M9.2314373,8.45599656 C9.2314373,8.83756264 8.92372272,9.14527721 8.54215664,9.14527721 C8.08058478,9.14527721 7.69286441,8.83756264 7.7728702,8.37599077 C7.7728702,7.9944247 8.08058478,7.68671012 8.46215085,7.68671012 C8.84371693,7.68671012 9.2314373,7.9944247 9.2314373,8.45599656 Z" id="形状"></path>
                </g>
            </g>
        </g>
    </g>
</svg>