<?xml version="1.0" encoding="UTF-8"?>
<svg width="37px" height="40px" viewBox="0 0 37 40" version="1.1" xmlns="http://www.w3.org/2000/svg" xmlns:xlink="http://www.w3.org/1999/xlink">
    <title>user-task-icon</title>
    <g id="页面-1" stroke="none" stroke-width="1" fill="none" fill-rule="evenodd">
        <g id="Apple-TV-4K" transform="translate(-1176.000000, -1273.000000)">
            <g id="user-task-icon" transform="translate(1176.000000, 1273.000000)">
                <path d="M20,0 L36.4044944,0 L36.4044944,0 L36.4044944,40 L20,40 C8.95430499,40 0,31.045695 0,20 C0,8.95430499 8.95430499,0 20,0 Z" id="矩形" fill-opacity="0.15" fill="#CBCBCB" fill-rule="nonzero"></path>
                <path d="M19.7752809,1.79775281 L36.4044944,1.79775281 L36.4044944,1.79775281 L36.4044944,37.752809 L19.7752809,37.752809 C9.84656629,37.752809 1.79775281,29.7039955 1.79775281,19.7752809 C1.79775281,9.84656629 9.84656629,1.79775281 19.7752809,1.79775281 Z" id="矩形" fill="#FFFFFF" fill-rule="nonzero"></path>
                <circle id="椭圆形" stroke="#01B25F" fill="#A3E7C7" fill-rule="nonzero" cx="20" cy="20" r="9.66292135"></circle>
                <g id="user-task" transform="translate(14.943820, 14.842697)" stroke="#01B25F" stroke-linecap="round" stroke-linejoin="round">
                    <rect id="矩形" x="0" y="0" width="10" height="10" rx="2"></rect>
                    <circle id="椭圆形" cx="5" cy="3.88888889" r="1.66666667"></circle>
                    <path d="M2.22222222,10 L2.22222222,8.88888889 C2.22222222,8.27523917 2.71968361,7.77777778 3.33333333,7.77777778 L6.66666667,7.77777778 C7.28031639,7.77777778 7.77777778,8.27523917 7.77777778,8.88888889 L7.77777778,10" id="路径"></path>
                </g>
            </g>
        </g>
    </g>
</svg>