<?xml version="1.0" encoding="UTF-8"?>
<svg width="37px" height="40px" viewBox="0 0 37 40" version="1.1" xmlns="http://www.w3.org/2000/svg" xmlns:xlink="http://www.w3.org/1999/xlink">
    <title>data-store</title>
    <g id="页面-1" stroke="none" stroke-width="1" fill="none" fill-rule="evenodd">
        <g id="Apple-TV-4K" transform="translate(-1176.000000, -1894.000000)" fill-rule="nonzero">
            <g id="data-store" transform="translate(1176.000000, 1894.000000)">
                <path d="M20,0 L36.4044944,0 L36.4044944,0 L36.4044944,40 L20,40 C8.95430499,40 0,31.045695 0,20 C0,8.95430499 8.95430499,0 20,0 Z" id="矩形" fill-opacity="0.15" fill="#CBCBCB"></path>
                <path d="M19.7752809,1.79775281 L36.4044944,1.79775281 L36.4044944,37.752809 L19.7752809,37.752809 C9.84656629,37.752809 1.79775281,29.7039955 1.79775281,19.7752809 C1.79775281,9.84656629 9.84656629,1.79775281 19.7752809,1.79775281 Z" id="矩形" fill="#FFFFFF"></path>
                <circle id="椭圆形" stroke="#5A5D6B" fill="#EFEFF1" cx="20" cy="20" r="9.66292135"></circle>
                <g id="database-(2)" transform="translate(15.000000, 15.000000)" fill="#5A5D6B">
                    <path d="M9.50894737,0.893432604 C9.24736842,0.712301367 8.88105263,0.55172797 8.42,0.416712968 C7.50315789,0.147794199 6.28842105,0 5,0 C3.71157895,0 2.49684211,0.148349817 1.58,0.416712968 C1.11842105,0.55172797 0.752105263,0.712301367 0.491052632,0.893432604 C0.165263158,1.11956884 0,1.37904212 0,1.66629626 L0,8.33370374 C0,8.62095788 0.165263158,8.88098678 0.491052632,9.1065674 C0.752631579,9.28769863 1.11894737,9.44827203 1.58,9.58328703 C2.49684211,9.8522058 3.71157895,10 5,10 C6.28842105,10 7.50315789,9.85165018 8.42,9.58273141 C8.88157895,9.44771641 9.24789474,9.28714302 9.50894737,9.10601178 C9.83473684,8.88043116 10,8.62040227 10,8.33314813 L10,1.66574064 C10,1.3784865 9.83473684,1.11845761 9.50894737,0.892876986 L9.50894737,0.893432604 Z M1.72105263,0.951772419 C2.59368421,0.696188465 3.75789474,0.555061674 5,0.555061674 C6.24210526,0.555061674 7.40684211,0.696188465 8.27894737,0.951772419 C9.22368421,1.22902545 9.47368421,1.54017113 9.47368421,1.66629626 C9.47368421,1.79242138 9.22421053,2.10356706 8.27894737,2.38082009 C7.40631579,2.63640404 6.24210526,2.77753084 5,2.77753084 C3.75789474,2.77753084 2.59315789,2.63640404 1.72105263,2.38082009 C0.776315789,2.10356706 0.526315789,1.79242138 0.526315789,1.66629626 C0.526315789,1.54017113 0.775789474,1.22902545 1.72105263,0.951772419 Z M8.27894737,9.04822758 C7.40631579,9.30381153 6.24210526,9.44493833 5,9.44493833 C3.75789474,9.44493833 2.59315789,9.30381153 1.72105263,9.04822758 C0.776315789,8.77097455 0.526315789,8.45982887 0.526315789,8.33370374 L0.526315789,6.90798978 C0.785263158,7.07967552 1.13894737,7.23191466 1.58,7.36137349 C2.49684211,7.63029225 3.71157895,7.77808645 5,7.77808645 C6.28842105,7.77808645 7.50315789,7.62973664 8.42,7.36081787 C8.86105263,7.23135904 9.21526316,7.0791199 9.47368421,6.90743416 L9.47368421,8.33314813 C9.47368421,8.45927325 9.22421053,8.77041894 8.27894737,9.04767196 L8.27894737,9.04822758 Z M8.27894737,6.82575842 C7.40631579,7.08134237 6.24210526,7.22246916 5,7.22246916 C3.75789474,7.22246916 2.59315789,7.08134237 1.72105263,6.82575842 C0.776315789,6.54850539 0.526315789,6.23735971 0.526315789,6.11123458 L0.526315789,4.68552061 C0.785263158,4.85720636 1.13894737,5.00944549 1.58,5.13890432 C2.49684211,5.40782309 3.71157895,5.55561729 5,5.55561729 C6.28842105,5.55561729 7.50315789,5.40726747 8.42,5.13890432 C8.86105263,5.00944549 9.21526316,4.85720636 9.47368421,4.68552061 L9.47368421,6.11123458 C9.47368421,6.23735971 9.22421053,6.54850539 8.27894737,6.82575842 Z M8.27894737,4.60328925 C7.40631579,4.85887321 6.24210526,5 5,5 C3.75789474,5 2.59315789,4.85887321 1.72105263,4.60328925 C0.776315789,4.32603623 0.526315789,4.01489054 0.526315789,3.88876542 L0.526315789,2.46305145 C0.785263158,2.63473719 1.13894737,2.78697633 1.58,2.91643516 C2.49684211,3.18535393 3.71157895,3.33314813 5,3.33314813 C6.28842105,3.33314813 7.50315789,3.18479831 8.42,2.91643516 C8.86105263,2.78697633 9.21526316,2.63473719 9.47368421,2.46305145 L9.47368421,3.88876542 C9.47368421,4.01489054 9.22421053,4.32603623 8.27894737,4.60328925 L8.27894737,4.60328925 Z" id="形状"></path>
                </g>
            </g>
        </g>
    </g>
</svg>