<?xml version="1.0" encoding="UTF-8"?>
<svg width="37px" height="40px" viewBox="0 0 37 40" version="1.1" xmlns="http://www.w3.org/2000/svg" xmlns:xlink="http://www.w3.org/1999/xlink">
    <title>data-object</title>
    <g id="页面-1" stroke="none" stroke-width="1" fill="none" fill-rule="evenodd">
        <g id="Apple-TV-4K" transform="translate(-1176.000000, -1963.000000)" fill-rule="nonzero">
            <g id="data-object" transform="translate(1176.000000, 1963.000000)">
                <path d="M20,0 L36.4044944,0 L36.4044944,0 L36.4044944,40 L20,40 C8.95430499,40 0,31.045695 0,20 C0,8.95430499 8.95430499,0 20,0 Z" id="矩形" fill-opacity="0.15" fill="#CBCBCB"></path>
                <path d="M19.7752809,1.79775281 L36.4044944,1.79775281 L36.4044944,37.752809 L19.7752809,37.752809 C9.84656629,37.752809 1.79775281,29.7039955 1.79775281,19.7752809 C1.79775281,9.84656629 9.84656629,1.79775281 19.7752809,1.79775281 Z" id="矩形" fill="#FFFFFF"></path>
                <circle id="椭圆形" stroke="#5A5D6B" fill="#EFEFF1" cx="20" cy="20" r="9.66292135"></circle>
                <g id="ic_data_object" transform="translate(15.000000, 16.000000)" fill="#5A5D6B">
                    <path d="M1,2.5 C1,2.775 0.775000008,3 0.5,3 C0.225,3 0,3.225 0,3.5 L0,4.5 C0,4.77500001 0.225,5 0.5,5 C0.775000008,5 1,5.22499999 1,5.5 L1,6.5 C1,7.33 1.67,8 2.5,8 L3.5,8 C3.77500001,8 4,7.775 4,7.5 C4,7.22500001 3.77500001,7 3.5,7 L2.5,7 C2.225,7 2,6.775 2,6.5 L2,5.5 C2,4.84999999 1.58,4.29 1,4.08499999 L1,3.915 C1.58,3.70999999 2,3.15 2,2.5 L2,1.5 C2,1.225 2.225,1 2.5,1 L3.5,1 C3.77500001,1 4,0.774999996 4,0.5 C4,0.224999988 3.77500001,0 3.5,0 L2.5,0 C1.67,0 1,0.669999996 1,1.5 L1,2.5 Z M9,2.5 L9,1.5 C9,0.669999996 8.33000001,0 7.5,0 L6.5,0 C6.225,0 6,0.225 6,0.5 C6,0.774999985 6.225,1 6.5,1 L7.5,1 C7.77500001,1 8,1.225 8,1.5 L8,2.5 C8,3.15 8.42000001,3.70999999 9,3.915 L9,4.08499999 C8.42000001,4.28999999 8,4.84499999 8,5.5 L8,6.5 C8,6.775 7.77500001,7 7.5,7 L6.5,7 C6.225,7 6,7.225 6,7.5 C6,7.77500001 6.225,8 6.5,8 L7.5,8 C8.33000001,8 9,7.33 9,6.5 L9,5.5 C9,5.22499999 9.225,5 9.5,5 C9.77500001,5 10,4.77499999 10,4.5 L10,3.5 C10,3.22499999 9.77500001,3 9.5,3 C9.225,3 9,2.775 9,2.5 Z" id="形状"></path>
                </g>
            </g>
        </g>
    </g>
</svg>