<?xml version="1.0" standalone="no"?><!DOCTYPE svg PUBLIC "-//W3C//DTD SVG 1.1//EN" "http://www.w3.org/Graphics/SVG/1.1/DTD/svg11.dtd"><svg height="1024" node-id="1" sillyvg="true" template-height="1024" template-width="1024" version="1.1" viewBox="0 0 1024 1024" width="1024" xmlns="http://www.w3.org/2000/svg" xmlns:xlink="http://www.w3.org/1999/xlink"><defs node-id="34"><linearGradient gradientUnits="objectBoundingBox" id="linearGradient-1" node-id="5" spreadMethod="pad" x1="0.5" x2="0.5" y1="0.68848" y2="0.000000000000000000000000000000006162976"><stop offset="0" stop-color="#95a4f7" stop-opacity="0"></stop><stop offset="1" stop-color="#c5d6ff" stop-opacity="0.44536883"></stop></linearGradient><linearGradient gradientUnits="objectBoundingBox" id="linearGradient-2" node-id="8" spreadMethod="pad" x1="0.5" x2="0.5" y1="1" y2="0.000000000000000000000000000000006162976"><stop offset="0" stop-color="#95a4f7" stop-opacity="0"></stop><stop offset="1" stop-color="#c5d6ff" stop-opacity="0.44536883"></stop></linearGradient><linearGradient gradientUnits="objectBoundingBox" id="linearGradient-3" node-id="11" spreadMethod="pad" x1="0.5" x2="0.5" y1="1" y2="0.000000000000000000000000000000006162976"><stop offset="0" stop-color="#95a4f7" stop-opacity="0"></stop><stop offset="1" stop-color="#c5d6ff" stop-opacity="0.44536883"></stop></linearGradient></defs><path d="M 0.00 0.00 L 1024.00 0.00 L 1024.00 1024.00 L 0.00 1024.00 Z" fill="#f4f5fc" fill-rule="evenodd" node-id="56" stroke="none" target-height="1024" target-width="1024" target-x="0" target-y="0"></path><path d="M 349.70 785.50 L 239.70 715.20 L 349.70 679.60 Z" fill="#e2e9ff" fill-rule="evenodd" id="路径-27" node-id="16" stroke="none" target-height="105.900024" target-width="110.000015" target-x="239.7" target-y="679.6"></path><g node-id="58"><path d="M 512.00 668.50 L 533.30 668.80 L 554.30 669.60 L 574.90 670.90 L 595.20 672.60 L 615.20 674.90 L 635.30 677.60 L 655.00 680.80 L 674.20 684.40 L 692.90 688.50 L 711.30 692.90 L 729.80 697.90 L 747.70 703.30 L 765.10 709.00 L 781.90 715.10 L 798.30 721.60 L 814.70 728.60 L 830.40 735.90 L 845.60 743.50 L 860.10 751.30 L 874.00 759.50 L 887.90 768.20 L 901.10 777.20 L 913.60 786.40 L 925.40 795.80 L 936.60 805.40 L 945.70 813.90 L 954.40 822.50 L 962.50 831.30 L 970.10 840.10 L 977.10 849.10 L 983.80 858.10 L 990.10 867.60 L 995.90 877.20 L 1001.10 886.90 L 1005.80 896.60 L 1009.90 906.40 L 1013.60 916.40 L 1016.80 926.60 L 1019.30 936.80 L 1021.40 947.20 L 1022.80 957.70 L 1023.70 968.20 L 1024.00 978.90 L 1023.80 988.10 L 1023.10 997.20 L 1022.10 1006.20 L 1020.60 1015.10 L 1018.60 1024.00 L 5.40 1024.00 L 3.40 1015.10 L 1.90 1006.20 L 0.90 997.20 L 0.20 988.10 L 0.00 978.90 L 0.30 968.20 L 1.20 957.70 L 2.60 947.20 L 4.70 936.80 L 7.20 926.60 L 10.40 916.40 L 14.10 906.40 L 18.20 896.60 L 22.90 886.90 L 28.10 877.20 L 33.90 867.60 L 40.20 858.10 L 46.90 849.10 L 53.90 840.10 L 61.50 831.30 L 69.60 822.50 L 78.30 813.90 L 87.40 805.40 L 98.60 795.80 L 110.40 786.40 L 122.90 777.20 L 136.10 768.20 L 150.00 759.50 L 163.90 751.30 L 178.40 743.50 L 193.60 735.90 L 209.30 728.60 L 225.70 721.60 L 242.10 715.10 L 258.90 709.00 L 276.30 703.30 L 294.20 697.90 L 312.70 692.90 L 331.10 688.50 L 349.80 684.40 L 369.00 680.80 L 388.70 677.60 L 408.80 674.90 L 428.80 672.60 L 449.10 670.90 L 469.70 669.60 L 490.70 668.80 L 512.00 668.50 Z" fill="url(#linearGradient-1)" fill-rule="evenodd" group-id="1" id="形状结合" node-id="18" stroke="none" target-height="355.5" target-width="1024" target-x="0" target-y="668.5"></path><path d="M 81.30 219.40 L 81.30 219.00 L 73.10 219.40 L 67.10 219.20 L 61.20 218.50 L 55.50 217.30 L 50.00 215.70 L 44.60 213.70 L 39.50 211.30 L 34.60 208.50 L 29.90 205.30 L 25.50 201.80 L 21.40 198.00 L 17.60 193.90 L 14.10 189.50 L 11.00 184.80 L 8.20 179.90 L 5.80 174.80 L 3.70 169.40 L 2.10 163.90 L 1.00 158.20 L 0.30 152.40 L 0.00 146.30 L 0.30 140.20 L 1.00 134.30 L 2.10 128.70 L 3.70 123.20 L 5.80 117.80 L 8.20 112.60 L 11.00 107.80 L 14.10 103.10 L 17.60 98.70 L 21.40 94.60 L 25.50 90.80 L 29.90 87.30 L 34.60 84.10 L 39.50 81.30 L 44.60 78.90 L 50.00 76.90 L 55.50 75.30 L 61.20 74.10 L 67.10 73.40 L 73.10 73.10 L 77.90 73.30 L 87.10 74.50 L 89.50 68.00 L 92.20 61.80 L 95.40 55.90 L 98.90 50.10 L 102.70 44.50 L 106.90 39.30 L 111.30 34.30 L 116.10 29.50 L 121.10 25.10 L 126.40 21.00 L 132.00 17.20 L 137.80 13.70 L 143.80 10.60 L 150.00 7.90 L 156.40 5.60 L 163.10 3.60 L 169.80 2.00 L 176.70 0.90 L 183.70 0.20 L 191.00 0.00 L 198.20 0.20 L 205.10 0.90 L 211.90 2.00 L 218.60 3.50 L 225.00 5.40 L 233.00 8.30 L 240.60 11.80 L 247.80 15.80 L 254.70 20.40 L 261.30 25.50 L 267.40 31.00 L 273.10 37.00 L 278.40 43.40 L 283.10 50.10 L 287.40 57.20 L 291.10 64.70 L 294.20 72.50 L 296.30 78.90 L 298.00 85.50 L 299.30 92.20 L 300.20 99.10 L 300.60 106.20 L 308.80 105.70 L 318.10 106.40 L 326.80 108.60 L 332.30 110.70 L 337.50 113.40 L 342.40 116.60 L 347.00 120.30 L 351.00 124.40 L 354.70 128.90 L 357.90 133.80 L 360.60 139.00 L 362.80 144.60 L 365.00 153.30 L 365.50 157.80 L 365.70 162.50 L 365.00 171.80 L 362.80 180.50 L 360.60 186.10 L 357.90 191.30 L 354.70 196.10 L 351.00 200.70 L 347.00 204.80 L 342.40 208.50 L 337.50 211.70 L 332.30 214.30 L 326.80 216.50 L 318.10 218.70 L 313.50 219.20 L 308.80 219.40 L 300.70 218.90 L 300.70 219.40 L 81.30 219.40 Z" fill="url(#linearGradient-2)" fill-rule="evenodd" group-id="1" id="形状结合" node-id="19" stroke="none" target-height="219.4" target-width="365.7" target-x="0" target-y="0"></path><path d="M 715.20 260.10 L 705.60 259.80 L 700.40 259.00 L 695.40 257.70 L 690.50 255.90 L 685.90 253.70 L 681.60 251.00 L 677.50 248.00 L 673.80 244.60 L 670.30 240.80 L 667.30 236.80 L 664.70 232.50 L 662.40 227.80 L 660.70 223.00 L 659.40 218.00 L 658.60 212.70 L 658.30 207.20 L 658.60 201.80 L 659.40 196.50 L 660.70 191.50 L 662.40 186.70 L 664.70 182.00 L 667.30 177.70 L 670.30 173.60 L 673.80 169.90 L 677.50 166.50 L 681.60 163.40 L 685.90 160.80 L 690.50 158.60 L 695.40 156.80 L 700.40 155.50 L 705.60 154.70 L 711.10 154.40 L 720.30 155.20 L 722.60 149.80 L 725.20 144.70 L 728.20 139.90 L 731.60 135.20 L 735.30 130.90 L 739.30 126.80 L 743.60 123.00 L 748.20 119.60 L 753.00 116.40 L 758.00 113.70 L 763.30 111.30 L 768.80 109.30 L 774.40 107.70 L 780.20 106.60 L 786.20 105.90 L 792.40 105.70 L 798.60 105.90 L 804.70 106.60 L 810.50 107.80 L 816.20 109.40 L 821.80 111.40 L 827.10 113.90 L 832.10 116.70 L 837.00 119.80 L 841.60 123.40 L 845.90 127.20 L 849.90 131.40 L 853.60 135.80 L 857.00 140.50 L 860.00 145.50 L 862.60 150.70 L 864.80 156.10 L 866.70 161.70 L 868.10 167.50 L 869.00 173.40 L 869.50 179.60 L 873.50 179.00 L 877.70 178.80 L 881.90 179.00 L 886.00 179.60 L 889.80 180.60 L 893.50 182.00 L 900.40 185.70 L 903.60 188.10 L 909.10 193.60 L 913.40 200.00 L 915.20 203.60 L 916.50 207.30 L 917.50 211.20 L 918.10 215.20 L 918.30 219.40 L 918.10 223.60 L 917.50 227.70 L 916.50 231.50 L 913.40 238.80 L 909.10 245.30 L 903.60 250.80 L 900.40 253.10 L 893.50 256.90 L 889.80 258.20 L 886.00 259.20 L 881.90 259.80 L 877.70 260.10 L 873.60 259.90 L 869.60 259.30 L 869.60 260.10 L 715.20 260.10 Z" fill="url(#linearGradient-3)" fill-rule="evenodd" group-id="1" id="形状结合备份" node-id="20" stroke="none" target-height="154.40001" target-width="260" target-x="658.3" target-y="105.7"></path><g node-id="59"><path d="M 588.79 489.68 L 590.19 490.48 L 591.09 491.68 L 591.49 493.18 L 591.29 494.78 L 586.39 508.58 L 581.49 520.78 L 576.59 531.48 L 571.79 540.88 L 566.99 548.98 L 562.19 555.98 L 557.79 561.58 L 553.39 566.38 L 549.09 570.38 L 544.69 573.78 L 540.39 576.48 L 536.19 578.68 L 531.79 580.28 L 526.29 581.58 L 517.19 592.38 L 511.39 598.48 L 505.49 603.68 L 499.69 608.28 L 493.89 612.08 L 488.09 615.28 L 482.19 617.98 L 475.99 620.08 L 469.79 621.68 L 463.39 622.58 L 456.99 622.88 L 450.39 622.58 L 443.69 621.68 L 442.09 621.08 L 440.99 619.98 L 440.39 618.58 L 440.39 616.98 L 440.99 615.48 L 442.09 614.38 L 443.49 613.78 L 445.09 613.68 L 451.09 614.48 L 456.99 614.78 L 462.69 614.48 L 468.39 613.58 L 473.99 612.28 L 479.49 610.28 L 484.69 607.88 L 489.89 604.98 L 495.19 601.48 L 500.49 597.28 L 505.79 592.48 L 515.69 581.88 L 509.89 580.88 L 504.79 579.38 L 497.89 576.48 L 494.19 573.48 L 491.79 570.88 L 488.49 565.88 L 486.59 560.38 L 486.29 557.68 L 486.89 552.38 L 489.09 547.18 L 490.79 544.58 L 493.09 541.88 L 495.89 539.38 L 502.39 535.18 L 509.79 532.18 L 513.79 531.28 L 521.89 530.48 L 526.49 530.68 L 530.39 531.38 L 533.49 532.38 L 535.99 533.78 L 538.09 535.38 L 539.89 537.38 L 541.19 539.68 L 541.99 542.38 L 542.49 545.38 L 542.39 548.88 L 541.69 552.98 L 540.29 557.68 L 537.99 563.08 L 533.89 570.58 L 534.69 570.18 L 538.79 567.88 L 542.89 564.98 L 546.99 561.28 L 551.19 556.78 L 555.59 551.48 L 559.99 545.08 L 564.29 537.78 L 568.69 529.28 L 573.29 519.58 L 577.89 508.28 L 583.59 492.18 L 584.39 490.78 L 585.69 489.88 L 587.19 489.48 L 588.79 489.68 Z M 522.19 573.68 L 526.59 567.48 L 529.69 562.38 L 531.79 558.08 L 533.19 554.48 L 534.09 551.18 L 534.29 548.38 L 534.19 546.08 L 533.59 544.28 L 532.69 542.58 L 531.49 541.28 L 529.89 540.18 L 527.79 539.38 L 525.19 538.78 L 521.89 538.58 L 518.59 538.68 L 512.19 539.98 L 509.19 540.98 L 503.59 543.78 L 501.19 545.58 L 497.29 549.48 L 495.79 551.88 L 494.79 554.18 L 494.49 556.48 L 494.59 558.88 L 495.19 561.08 L 496.39 563.48 L 498.29 565.98 L 501.89 569.38 L 507.49 571.68 L 511.79 572.88 L 515.99 573.58 L 522.19 573.68 Z" fill="#dee7fd" fill-rule="nonzero" group-id="1,2" id="路径-24" node-id="21" stroke="none" target-height="133.40002" target-width="151.10004" target-x="440.38934" target-y="489.47876"></path></g><g node-id="60"><path d="M 783.40 480.10 L 911.60 456.70 L 915.60 523.60 L 783.40 480.10 Z M 775.30 455.80 L 827.20 395.30 L 854.80 425.60 L 775.30 455.80 Z" fill="#dee6fc" fill-rule="evenodd" group-id="1,3" id="形状结合" node-id="22" stroke="none" target-height="128.29999" target-width="140.29999" target-x="775.3" target-y="395.3"></path></g><g node-id="61"><path d="M 416.80 274.40 L 762.40 366.90 L 763.80 367.60 L 764.80 368.80 L 765.30 370.20 L 765.20 371.80 L 650.00 801.60 L 649.30 803.10 L 648.20 804.10 L 646.70 804.60 L 645.10 804.50 L 643.70 803.70 L 630.00 793.10 L 617.80 784.20 L 606.80 776.80 L 596.90 770.80 L 588.10 766.00 L 580.30 762.30 L 573.30 759.60 L 567.10 757.60 L 560.80 756.20 L 553.30 755.10 L 544.60 754.40 L 534.60 754.10 L 522.90 754.40 L 509.50 755.30 L 494.30 756.90 L 476.90 759.20 L 474.20 759.40 L 471.60 758.90 L 469.10 758.00 L 466.80 756.50 L 453.10 745.80 L 440.80 736.80 L 429.90 729.40 L 420.30 723.40 L 411.70 718.70 L 404.20 715.10 L 397.60 712.50 L 391.90 710.60 L 386.00 709.30 L 378.90 708.30 L 370.50 707.60 L 360.50 707.40 L 348.80 707.60 L 335.10 708.40 L 319.30 709.90 L 301.10 712.10 L 299.50 712.00 L 298.20 711.30 L 297.20 710.20 L 296.60 708.70 L 296.70 707.10 L 411.90 277.20 L 412.60 275.70 L 413.80 274.80 L 415.20 274.30 L 416.80 274.40 Z" fill="#9cb8ff" fill-opacity="0.25275093" fill-rule="evenodd" group-id="1,4" id="矩形" node-id="23" stroke="none" target-height="530.3" target-width="468.69998" target-x="296.6" target-y="274.3"></path></g><path d="M 322.60 349.50 L 680.30 349.50 L 681.90 349.80 L 683.10 350.60 L 684.00 351.90 L 684.30 353.50 L 684.30 798.40 L 684.00 800.00 L 683.10 801.20 L 681.90 802.10 L 680.30 802.40 L 678.70 802.10 L 662.80 795.40 L 648.60 789.90 L 636.10 785.70 L 625.00 782.40 L 615.30 780.10 L 606.80 778.50 L 599.30 777.60 L 592.80 777.40 L 586.30 777.60 L 578.90 778.50 L 570.30 780.10 L 560.50 782.40 L 549.30 785.70 L 536.60 790.00 L 522.30 795.50 L 506.10 802.30 L 503.60 803.10 L 500.90 803.30 L 498.30 803.10 L 495.70 802.20 L 479.60 795.40 L 465.40 789.90 L 453.00 785.60 L 442.10 782.40 L 432.70 780.00 L 424.50 778.50 L 417.40 777.60 L 411.40 777.40 L 405.40 777.60 L 398.30 778.50 L 390.00 780.00 L 380.20 782.30 L 369.00 785.50 L 356.00 789.90 L 341.10 795.40 L 324.10 802.20 L 322.60 802.50 L 321.10 802.20 L 319.80 801.40 L 318.90 800.10 L 318.60 798.50 L 318.60 353.50 L 318.90 351.90 L 319.70 350.60 L 321.00 349.80 L 322.60 349.50 Z" fill="#9eb8fe" fill-rule="evenodd" group-id="1" id="矩形" node-id="24" stroke="none" target-height="453.8" target-width="365.69998" target-x="318.6" target-y="349.5"></path><path d="M 337.20 349.50 L 694.90 349.50 L 696.50 349.80 L 697.70 350.60 L 698.60 351.90 L 698.90 353.50 L 698.90 798.40 L 698.60 800.00 L 697.70 801.20 L 696.50 802.10 L 694.90 802.40 L 693.30 802.10 L 677.40 795.40 L 663.30 789.90 L 650.70 785.70 L 639.70 782.40 L 629.90 780.10 L 621.40 778.50 L 614.00 777.60 L 607.50 777.40 L 601.00 777.60 L 593.50 778.50 L 584.90 780.10 L 575.10 782.40 L 563.90 785.70 L 551.20 790.00 L 536.90 795.50 L 520.80 802.30 L 518.20 803.10 L 515.50 803.30 L 512.90 803.10 L 510.30 802.20 L 494.20 795.40 L 480.10 789.90 L 467.60 785.60 L 456.80 782.40 L 447.30 780.00 L 439.10 778.50 L 432.10 777.60 L 426.00 777.40 L 420.00 777.60 L 412.90 778.50 L 404.60 780.00 L 394.90 782.30 L 383.60 785.50 L 370.60 789.90 L 355.70 795.40 L 338.80 802.20 L 337.20 802.50 L 335.70 802.20 L 334.40 801.40 L 333.50 800.10 L 333.20 798.50 L 333.20 353.50 L 333.50 351.90 L 334.40 350.60 L 335.60 349.80 L 337.20 349.50 Z" fill="#bcd0ff" fill-rule="evenodd" group-id="1" id="矩形" node-id="25" stroke="none" target-height="453.8" target-width="365.7" target-x="333.2" target-y="349.5"></path><g node-id="62"><g node-id="68"><path d="M 588.60 679.50 L 588.60 661.80 L 584.40 659.60 L 580.60 657.00 L 577.20 653.90 L 574.10 650.40 L 571.60 646.60 L 569.50 642.40 L 568.00 637.90 L 567.00 633.20 L 566.70 628.30 L 567.40 620.90 L 569.50 614.00 L 571.70 609.80 L 574.30 605.90 L 577.40 602.40 L 580.90 599.30 L 584.80 596.70 L 589.00 594.60 L 592.40 593.40 L 599.50 591.90 L 603.20 591.70 L 607.00 591.90 L 614.10 593.40 L 617.50 594.60 L 621.70 596.70 L 625.60 599.30 L 629.10 602.40 L 632.20 606.00 L 634.80 609.80 L 636.90 614.10 L 639.10 620.90 L 639.80 628.30 L 639.50 633.30 L 638.50 637.90 L 637.00 642.40 L 634.90 646.60 L 632.30 650.40 L 629.30 653.90 L 625.80 657.00 L 622.00 659.60 L 617.90 661.80 L 617.90 679.50 L 650.80 679.50 L 654.10 679.80 L 657.20 680.60 L 660.00 682.00 L 662.60 683.80 L 664.80 685.90 L 666.60 688.50 L 667.90 691.30 L 668.80 694.40 L 669.10 697.80 L 669.10 716.10 L 537.40 716.10 L 537.40 697.80 L 537.70 694.40 L 538.60 691.40 L 539.90 688.50 L 541.70 686.00 L 543.90 683.80 L 546.50 682.00 L 549.30 680.60 L 552.40 679.80 L 555.70 679.50 L 588.60 679.50 Z M 543.60 722.00 L 660.70 722.00 L 660.70 736.60 L 543.60 736.60 L 543.60 722.00 Z" fill="#ffffff" fill-opacity="0.8492926" fill-rule="nonzero" group-id="1,5,11" id="形状" node-id="27" stroke="none" target-height="144.89996" target-width="131.69995" target-x="537.4" target-y="591.7"></path></g></g><g node-id="63"><path d="M 373.80 417.70 L 474.20 417.70 L 474.20 434.00 L 373.80 434.00 Z" fill="#ffffff" fill-opacity="0.4971023" fill-rule="evenodd" group-id="1,6" id="矩形" node-id="28" stroke="none" target-height="16.299988" target-width="100.400024" target-x="373.8" target-y="417.7"></path></g><g node-id="64"><path d="M 373.80 474.60 L 653.50 474.60 L 653.50 490.90 L 373.80 490.90 Z" fill="#ffffff" fill-opacity="0.4971023" fill-rule="evenodd" group-id="1,7" id="矩形备份" node-id="29" stroke="none" target-height="16.299988" target-width="279.7" target-x="373.8" target-y="474.6"></path></g><g node-id="65"><path d="M 373.80 531.50 L 659.10 531.50 L 659.10 547.80 L 373.80 547.80 Z" fill="#ffffff" fill-opacity="0.4971023" fill-rule="evenodd" group-id="1,8" id="矩形备份-2" node-id="30" stroke="none" target-height="16.299988" target-width="285.3" target-x="373.8" target-y="531.5"></path></g><g node-id="66"><path d="M 373.80 590.00 L 476.20 590.00 L 476.20 606.30 L 373.80 606.30 Z" fill="#ffffff" fill-opacity="0.4971023" fill-rule="evenodd" group-id="1,9" id="矩形备份-3" node-id="31" stroke="none" target-height="16.299988" target-width="102.400024" target-x="373.8" target-y="590"></path></g><path d="M 373.80 648.50 L 476.20 648.50 L 476.20 664.80 L 373.80 664.80 Z" fill="#ffffff" fill-opacity="0.4971023" fill-rule="evenodd" group-id="1,10" id="矩形备份-4" node-id="32" stroke="none" target-height="16.299988" target-width="102.400024" target-x="373.8" target-y="648.5"></path></g></svg>