<svg xmlns='http://www.w3.org/2000/svg' width='400' height='400'>
      <defs><style>.cls-path-cs3-male-1R{clip-path:url(#clip-path-cs3-male-1R)}.cls-path-cs3-male-1L{clip-path:url(#clip-path-cs3-male-1L)}.cls-multipy{mix-blend-mode: multiply;}.cls-softlight{mix-blend-mode: soft-light;}.cls-overlay{mix-blend-mode: overlay;}.cls-colorburn{mix-blend-mode: color-burn;}.cls-screen{mix-blend-mode: screen;}.cls-lighten{ mix-blend-mode: darken;}</style>
      <clipPath id="clip-path-cs3-male-1R"><path fill="#none" d="M267.64,162.81a4.41,4.41,0,0,1-.94,2.89c-5.69,8-42.15,7-43.17,6.2a1.26,1.26,0,0,0-.6-.27,3.55,3.55,0,0,0-2.13.53h0c.28-.21.17-2,.2-2.38a8.84,8.84,0,0,1,.62-2.6c.09-.23.2-.46.3-.71a29.12,29.12,0,0,1,5.39-8.31c7.56-7.82,20.46-6.17,29.81-2.9C260.21,156.36,267.31,158.86,267.64,162.81Z"></path></clipPath><clipPath id="clip-path-cs3-male-1L"><path fill="#none" d="M132.36,163.71a4.41,4.41,0,0,0,.94,2.9c5.69,8,42.15,7,43.17,6.2a1.38,1.38,0,0,1,.6-.28,3.55,3.55,0,0,1,2.13.53s0,0,0,0c-.28-.22-.17-2.06-.2-2.39a8.77,8.77,0,0,0-.62-2.59c-.09-.23-.2-.47-.3-.71a29.3,29.3,0,0,0-5.39-8.32c-7.56-7.81-20.46-6.17-29.81-2.9C139.79,157.26,132.69,159.76,132.36,163.71Z"></path></clipPath></defs><path fill="#f9d1c0" d="M393.17,400H6.83s4.5-20,5.25-24.64S136.62,325.91,139,324c1.47-1.21,3.35-27.08,4.52-45.79.67-10.75,1.12-19.13,1.12-19.13H255.42s1.41,27,3.05,46.2c.85,10.12,1.78,18.06,2.58,18.72,2.33,1.91,126.12,46.68,126.87,51.36S393.17,400,393.17,400Z" class="canChange"></path><path fill="#d177b8" opacity="0.44" d="M258.47,305.28c-5.58.62-14.35,2.15-20.11,5.88-9.05,5.85-20.63,31.31-38.47,30.54s-40.48-48.61-44-55c-2.07-3.73-7.91-6.7-12.41-8.51.67-10.75,1.12-19.13,1.12-19.13H255.42S256.83,286.09,258.47,305.28Z" class="cls-multipy"></path><path fill="#f9d1c0" d="M280.58,163.11s12.05-18.35,20.22-18.31c5,0,17,10.47,16.84,20.44-.18,13.35-12,28.5-14.94,36.28s-10.56,17.92-15.63,18.9-11.67-8.62-11.67-8.62S277.86,175.21,280.58,163.11Z" class="canChange"></path><path fill="#d177b8" opacity="0.44" d="M281.47,182.64s19.78-24.43,27-24.43,7.19,13.9,4.29,21.83c-2,5.49-5.93,13.43-5.93,13.43s3.1-8.53,3.48-14.9c.57-9.81-1.61-16.94-4.09-16.93-4.55,0-8.14,6.26-8.71,8.47s3.6,11.89,2.49,18.64-5.15,9.32-6.5,8.58.74-8.34-.49-11-4.78-6.62-6.86-5.76S281.47,182.64,281.47,182.64Z" class="cls-multipy"></path><path fill="#d177b8" opacity="0.44" d="M281.47,182.64s4.88-2.91,6.36-2,5.25,4.32,5.4,6.45-1.19,8.19,0,9.24,5.5-5.78,5.69-11.81-3.19-13-3.19-13.82.79-4.69.79-4.69S285,176.91,281.47,182.64Z" class="cls-multipy"></path><path fill="#f9d1c0" d="M119.42,163.11s-12-18.35-20.22-18.31c-5,0-17,10.47-16.84,20.44.18,13.35,12,28.5,14.94,36.28s10.56,17.92,15.63,18.9,11.67-8.62,11.67-8.62S122.14,175.21,119.42,163.11Z" class="canChange"></path><path fill="#d177b8" opacity="0.44" d="M118.53,182.64s-19.78-24.43-27-24.43-7.19,13.9-4.29,21.83c2,5.49,5.93,13.43,5.93,13.43s-3.1-8.53-3.48-14.9c-.57-9.81,1.61-16.94,4.09-16.93,4.55,0,8.14,6.26,8.71,8.47S98.91,182,100,188.75s5.15,9.32,6.5,8.58-.74-8.34.49-11,4.78-6.62,6.86-5.76S118.53,182.64,118.53,182.64Z" class="cls-multipy"></path><path fill="#d177b8" opacity="0.44" d="M118.53,182.64s-4.88-2.91-6.36-2-5.25,4.32-5.4,6.45,1.19,8.19,0,9.24-5.5-5.78-5.69-11.81,3.19-13,3.19-13.82-.79-4.69-.79-4.69S115,176.91,118.53,182.64Z" class="cls-multipy"></path><path fill="#f9e8da" d="M284.05,171.6c-.92,10-2.53,19.49-3.65,29.41-4.24,12.72-10.86,31.87-17.76,49-5.66,14-11.5,26.68-16.39,33.38-2.22,3-4.24,4.85-6,5-5.48.51-13.29,1.07-20.58,1.56-9.81.64-18.68,1.16-19.71,1.21s-9.9-.56-19.69-1.21c-7.3-.48-15.12-1.05-20.6-1.56-1.72-.16-3.73-2-5.94-5C148.87,276.72,143,264,137.35,250c0,0,0,0,0,0-6.89-17.11-13.5-36.21-17.73-48.92-1.13-9.94-2.76-19.46-3.66-29.46-1.31-14.39-2.94-70.73,1.3-82.19S171.87,47.23,200,47.23c19.74,0,50.45,15.14,68.45,28.14,7.65,5.51,13,10.64,14.28,14C287,100.87,285.36,157.21,284.05,171.6Z" class="canChange"></path><path fill="#d177b8" opacity="0.4" d="M284.05,171.6c-.06.64-.12,1.29-.19,1.93s-.12,1.19-.19,1.79c-.26,2.47-.56,4.92-.88,7.36-.21,1.61-.43,3.22-.65,4.83-.36,2.62-.72,5.25-1.06,7.9-.19,1.51-.38,3-.56,4.54L280.4,201c-4.24,12.71-10.85,31.85-17.75,49-.77,1.15-1.58,2.29-2.4,3.43-.5.71-1,1.41-1.54,2.11,3.26-13.89,6.81-38.23,9.38-47.85,3.34-12.48,7.43-29.21,7.43-29.21-1-7.13-7.07-7.13-7.07-7.13-19,10.37-46.74,1.79-46.74,1.79-3.32-15.75-2.16-43-2.16-43l.75-5.35,51.48-2.52s-4.58-11-4.17-17.66,2.86-24.47.84-29.19c7.65,5.51,13,10.64,14.28,14C287,100.87,285.36,157.21,284.05,171.6Z" class="cls-multipy"></path><path fill="#d177b8" opacity="0.4" d="M178.32,173.13s-27.73,8.58-46.75-1.79c0,0-6.11,0-7.07,7.13,0,0,4.1,16.73,7.44,29.21,2.58,9.63,6.12,34,9.38,47.9-.54-.72-1.07-1.44-1.59-2.17-.33-.47-.67-.94-1-1.41-.47-.66-.93-1.33-1.39-2,0,0,0,0,0,0-6.88-17.08-13.48-36.14-17.71-48.85-1.12-10-2.74-19.51-3.66-29.53-1.3-14.39-2.93-70.73,1.32-82.19,1.27-3.4,6.63-8.53,14.28-14-2,4.72.42,22.48.84,29.19s-4.16,17.66-4.16,17.66l51.48,2.52.75,5.35S181.63,157.38,178.32,173.13Z" class="cls-multipy"></path><path fill="#d177b8" opacity="0.6" d="M246.25,283.4c-2.22,3-4.24,4.85-6,5-5.48.51-13.29,1.07-20.58,1.56-9.81.64-18.68,1.16-19.71,1.21s-9.9-.56-19.69-1.21c-7.3-.48-15.12-1.05-20.6-1.56-1.72-.16-3.73-2-5.94-5C168.65,287.31,202.27,293.22,246.25,283.4Z" class="cls-multipy"></path><path fill="#5d2750" d="M182.46,40.79s-17.28-9.41-21.4-16.71,6.18-16.49,6.18-16.49-4.49,5.06-4.49,9.37c0,0,17.14-13.67,36.48-13.86s34.13,15.55,34.13,15.55-1.12,10.88-18.17,21.54Z" class="canChange"></path><path fill="#839af2" d="M174.9,43.46s13.72-9.16,23.67-9.16,25,9.7,25,9.7Z"></path><path fill="#5d2750" d="M114.94,153.66s3.79-10.22,8.54-23,3.9-48.35,3.9-48.35-10.2,6.83-13.3,12.23S114.94,153.66,114.94,153.66Z" class="canChange"></path><path fill="#5d2750" d="M285.71,153.66l-8.54-23c-4.75-12.74-3.9-48.35-3.9-48.35s10.2,6.83,13.29,12.23S285.71,153.66,285.71,153.66Z" class="canChange"></path><path fill="#5d2750" d="M285.77,93.36s-1.66-1.25-14.77-5.18a142.38,142.38,0,0,1-24.71-10.36H153.57s-11.31,5.5-20.88,9.29h0c-1,.42-2.06.81-3,1.19-2.27.83-4.35,1.52-6,1.94-8.72,2.17-10.59,6.05-10.71,6.28-.08-.29-1.66-7.85,0-12.16a3.22,3.22,0,0,1,.21-.41c.8-1.29,3.13-3.36,6.17-5.69l.62-.48c2.78-2.11,6.09-4.43,9.27-6.6,5.85-4,11.33-7.46,12.65-8.31l.32-.19s-1.11-.79,3-4.59a17.62,17.62,0,0,1,2.36-1.72c.85-.57,1.89-1.21,3.1-1.88l.06,0a149.85,149.85,0,0,1,19.87-9.37c.43-.18.89-.34,1.32-.51l.32-.12c3.06-1.15,6.19-2.2,9.31-3.09a0,0,0,0,0,0,0l1.39-.37a5.69,5.69,0,0,1,.59-.16,59.9,59.9,0,0,1,14.87-2.25,61,61,0,0,1,15.12,2.23l0,0h0a.37.37,0,0,1,.14,0C229.41,45,244.89,53.58,246.84,55.4A13.81,13.81,0,0,1,250.4,61s6,3.49,10.88,6.52l0,0,1.06.65a49,49,0,0,1,5.08,3.42s4.39,2.93,9.08,6.19c5.24,3.62,10.87,7.63,11.23,8.38C288.42,87.63,285.77,93.36,285.77,93.36Z" class="canChange"></path><path fill="#ffeadb" d="M129.62,88.3c-2.27.83-4.35,1.52-6,1.94-8.72,2.17-10.59,6.05-10.71,6.28-.08-.29-1.66-7.85,0-12.16a3.22,3.22,0,0,1,.21-.41,11.3,11.3,0,0,1,1.51-.26C120.05,83.12,129.62,88.3,129.62,88.3Z" class="cls-multipy"></path><path fill="#d177f4" d="M285.77,93.36s-1.66-1.25-14.77-5.18a142.38,142.38,0,0,1-24.71-10.36H153.57s-11.31,5.5-20.88,9.29h0c-4.61-5.75-13.39-8.85-13.39-8.85l.62-.48s7.86,3.38,11.66,3.62a11.71,11.71,0,0,0,6.64-1.7c-4.29-2.1-9.23-8.19-9.23-8.19l.2-.33s4.92,5.57,9.33,6.15a13,13,0,0,0,7.67-1.41c-4.59-3.75-4.76-12.75-4.76-12.75l.41-.3.32-.19c.53,4.68,3.85,9.09,4.27,9.62-3.78-7.77,1.09-15.93,1.09-15.93l3.1-1.88.06,0s-6.45,8.07-3.2,16.06,34.2,3.71,34.2,3.71S166.5,73.39,163,65.33c-3.37-7.77,6.8-19.46,7.49-20.25l0,0,1.28-.47.32-.12c-7.43,6.26-11.66,18.64-3.42,23.68s20.32,4.69,20.32,4.69-12.45-6.47-13.86-12.91,5.86-17.87,6.27-18.55a0,0,0,0,0,0,0l1.39-.37.61-.18,0,0c-.46.57-8.5,10.7-6.57,18.58,2,8.13,16.87,12.62,26.62,14.38s22.59,1.1,22.59,1.1,5.38-10,3.37-19.47c-1.82-8.56-13.41-13.56-15.64-14.47,2.31.87,14.82,5.93,17.14,15.34,2.55,10.4-2.87,19.73-2.87,19.73,7.36.52,23.09-1.24,23.09-1.24,1.07-5.46-.63-13-.79-13.69,2.3,6.31,3.17,16.37,3.17,16.37,1.87,1.31,9,4.26,9,4.26,1.78-11.08-1.07-13.9-1.34-14.14l1.06.65a29.64,29.64,0,0,1,1.84,15.44A40.35,40.35,0,0,0,277.94,85c.56-3-1.42-7.18-1.42-7.18,5.24,3.62,10.87,7.63,11.23,8.38C288.42,87.63,285.77,93.36,285.77,93.36Z" class="cls-multipy"></path><path fill="#8c4d7d" d="M209.22,36.72s4.48-26.27,12-31.14c0,0,9,2.81,12.17,9.18s-2.83,10.89-2.83,10.89,4.58-4.27,2.83-9c-.88-2.37-4.56-2-4.56-2s-13.86,12.87-18.42,22.48Z"></path><path fill="#8c4d7d" d="M184.93,38a320.8,320.8,0,0,0-10-31.08s-5.59,1.5-7.22,2.81-1.69,5-1.69,5,.63-3.2,2.25-3.45,15.45,27.36,15.45,27.36Z"></path><path fill="#8c4d7d" d="M223.56,44s25,3.79,35.4,11.4c7.25,5.33-2.18,26.95-2.18,26.95l-3.28-.93s6.13-15.83,1.34-23c-3.12-4.67-12.86-11.54-24.38-10.88Z"></path><path fill="#8c4d7d" d="M148.52,80.21s-14.43-10.2-15.36-17,12-5.09,12-5.09L146.51,57S131,54.94,127.43,62.52s18.23,19,18.23,19Z"></path><path fill="#8c4d7d" d="M157.22,77.82s-10.39-21-3.65-28.29,21.33-6.07,21.33-6.07-15,.24-19.27,8.57,6.18,25.79,6.18,25.79Z"></path><path fill="#ffd9bb" opacity="0.5" d="M180.25,45.61a34.69,34.69,0,0,0-3.45,9s.58-1.55,1.73-1.8,11.17.89,25,1.8,22.16-2,23.71-1.61,2.34,3.16,2.34,3.16A12.73,12.73,0,0,0,225.08,48s1,1.09.67,1.34-17.42-.75-27.54-.13-17.46-1.77-18-2.18S180.25,45.61,180.25,45.61Z" class="cls-softlight"></path><path fill="#ffd9bb" opacity="0.5" d="M227.32,49.64a41.35,41.35,0,0,0,5.29,3.83c1.69.81,10.54,1.87,11.55,1.31l1-.56s3.57,2.21,4.52,5.1a17.54,17.54,0,0,0-8.53-2.79c-4.69-.13-7.81.06-7.81.06S229.55,51.26,227.32,49.64Z" class="cls-softlight"></path><path fill="#ffd9bb" opacity="0.5" d="M172.77,56.13s1.56-5.38,4-8.12c0,0-3.19,1.2-5,1.63a8,8,0,0,1-3.46,0,18.53,18.53,0,0,0-3.92,7.85S170.42,55.41,172.77,56.13Z" class="cls-softlight"></path><path d="M276.26,141.7s-6.29-10.84-12.61-11.17a24.46,24.46,0,0,0-5,.39c-13.61,2.23-38.51,12.84-38.51,12.84s-4.12-10.73-3.67-15.11l1.43-.63s1.47,6.77,2.44,7.74L220.2,127s19.84-3,32.68-4.86h0l2.13-.31h0l4.1-.59h0c2.64-.38,4.33-.59,4.44-.56.53.14,1.67.54,1.81.59l-.69-1.89S271.37,126.33,276.26,141.7Z" class="canChange"></path><path opacity="0.2" d="M276.26,141.7s-6.29-10.84-12.61-11.17a24.46,24.46,0,0,0-5,.39l-5.81-8.78h0l2.13-.31h0c3.5.6,13.21,7.6,13.21,7.6-2.68-5.19-8.76-8-9.1-8.19,2.64-.38,4.33-.59,4.44-.56.53.14,1.67.54,1.81.59l-.69-1.89S271.37,126.33,276.26,141.7Z" class="cls-multipy"></path><path d="M123.74,141.7s6.29-10.84,12.61-11.17a24.46,24.46,0,0,1,5,.39c13.61,2.23,38.51,12.84,38.51,12.84s4.12-10.73,3.67-15.11l-1.43-.63s-1.47,6.77-2.44,7.74l.18-8.76s-19.84-3-32.68-4.86h0l-2.13-.31h0l-4.1-.59h0c-2.64-.38-4.33-.59-4.44-.56-.53.14-1.67.54-1.81.59l.69-1.89S128.63,126.33,123.74,141.7Z" class="canChange"></path><path opacity="0.2" d="M123.74,141.7s6.29-10.84,12.61-11.17a24.46,24.46,0,0,1,5,.39l5.81-8.78h0l-2.13-.31h0c-3.5.6-13.21,7.6-13.21,7.6,2.68-5.19,8.76-8,9.1-8.19-2.64-.38-4.33-.59-4.44-.56-.53.14-1.67.54-1.81.59l.69-1.89S128.63,126.33,123.74,141.7Z" class="cls-multipy"></path><path fill="#0b0000" d="M229.37,156.34c11.18-7.34,26.33-7.1,37.74-.43,2.47,1.44,6.37,4.14,3.71,7.34-2.18,2.63-6.22,3.78-9.27,4.75a118.85,118.85,0,0,1-20.35,4.23l-.25,0"></path><path fill="#e4e5f9" d="M267.64,162.81a4.41,4.41,0,0,1-.94,2.89c-5.69,8-42.15,7-43.17,6.2a1.26,1.26,0,0,0-.6-.27,3.55,3.55,0,0,0-2.13.53h0c.28-.21.17-2,.2-2.38a8.84,8.84,0,0,1,.62-2.6c.09-.23.2-.46.3-.71a29.12,29.12,0,0,1,5.39-8.31c7.56-7.82,20.46-6.17,29.81-2.9C260.21,156.36,267.31,158.86,267.64,162.81Z"></path><path fill="#dda6ae" d="M222.93,171.63a3.55,3.55,0,0,0-2.13.53h0c.28-.21.17-2,.2-2.38a8.84,8.84,0,0,1,.62-2.6C222,168.62,222.42,170.26,222.93,171.63Z"></path><g class="cls-path-cs3-male-1R show"><ellipse fill="#6a518a" cx="241.73" cy="157.57" rx="13.61" ry="13.66" transform="translate(-18.79 281.63) rotate(-58.56)"></ellipse><ellipse fill="#76719d" cx="241.73" cy="157.57" rx="12.81" ry="12.86" transform="translate(-18.7 281.82) rotate(-58.6)"></ellipse><ellipse fill="#724a60" cx="241.73" cy="157.57" rx="8.31" ry="8.34" transform="translate(-18.79 281.62) rotate(-58.56)" class="cls-multipy canChange"></ellipse></g><path fill="#d177b8" opacity="0.6" d="M267.64,162.81c-23.69-13.28-41.46,3.3-46.84,9.35h0c.28-.21.17-2,.2-2.38a9.68,9.68,0,0,1,.92-3.31,29.12,29.12,0,0,1,5.39-8.31c7.56-7.82,20.46-6.17,29.81-2.9C260.21,156.36,267.31,158.86,267.64,162.81Z" class="cls-multipy"></path><path fill="#fff" d="M252.73,163.08c-.89.7,3,1.11,6,.13,2.67-.88,4-2.48,3.8-2.79S256.23,160.31,252.73,163.08Z"></path><path fill="#fff" d="M250.46,163.69c-1.09-.44-2.42.06-2.51.65s1.26,1.4,1.91,1.19S251.07,163.94,250.46,163.69Z"></path><path fill="#0b0000" d="M170.63,157.25c-11.18-7.34-26.33-7.1-37.74-.44-2.47,1.44-6.37,4.15-3.71,7.35,2.18,2.62,6.22,3.78,9.27,4.74a117.91,117.91,0,0,0,20.35,4.23l.25,0"></path><path fill="#e4e5f9" d="M132.36,163.71a4.41,4.41,0,0,0,.94,2.9c5.69,8,42.15,7,43.17,6.2a1.38,1.38,0,0,1,.6-.28,3.55,3.55,0,0,1,2.13.53s0,0,0,0c-.28-.22-.17-2.06-.2-2.39a8.77,8.77,0,0,0-.62-2.59c-.09-.23-.2-.47-.3-.71a29.3,29.3,0,0,0-5.39-8.32c-7.56-7.81-20.46-6.17-29.81-2.9C139.79,157.26,132.69,159.76,132.36,163.71Z"></path><path fill="#dda6ae" d="M177.07,172.53a3.55,3.55,0,0,1,2.13.53s0,0,0,0c-.28-.22-.17-2.06-.2-2.39a8.77,8.77,0,0,0-.62-2.59C178,169.52,177.58,171.16,177.07,172.53Z"></path><g class="cls-path-cs3-male-1L show"><ellipse fill="#6a518a" cx="158.27" cy="158.47" rx="13.66" ry="13.61" transform="translate(-59.42 105.81) rotate(-31.44)"></ellipse><ellipse fill="#76719d" cx="158.27" cy="158.47" rx="12.86" ry="12.81" transform="translate(-59.38 105.66) rotate(-31.4)"></ellipse><ellipse fill="#724a60" cx="158.27" cy="158.47" rx="8.34" ry="8.31" transform="translate(-59.42 105.82) rotate(-31.44)" class="cls-multipy canChange"></ellipse></g><path fill="#d177b8" opacity="0.6" d="M132.36,163.71c23.69-13.28,41.46,3.3,46.84,9.35,0,0,0,0,0,0-.28-.22-.17-2.06-.2-2.39a9.63,9.63,0,0,0-.92-3.3,29.3,29.3,0,0,0-5.39-8.32c-7.56-7.81-20.46-6.17-29.81-2.9C139.79,157.26,132.69,159.76,132.36,163.71Z" class="cls-multipy"></path><path fill="#fff" d="M147.27,164c.89.7-3,1.11-6,.13-2.67-.87-4-2.48-3.8-2.79S143.77,161.22,147.27,164Z"></path><path fill="#fff" d="M149.54,164.6c1.09-.44,2.42.06,2.51.64s-1.26,1.41-1.91,1.2S148.93,164.85,149.54,164.6Z"></path><path opacity="0.6" fill="#8C2F72" d="M181.6,244.8c0,0,8,11.8,18.5,11.8s20.8-14.3,20.8-14.3L181.6,244.8z"></path><path fill="#BA7070" d="M170.4,228.4c0,0,11.4,25.4,29.6,25.4s29.6-25.4,29.6-25.4s-9.8,1.3-18.5,2.9c-8.1,1.7-16.4,1.7-24.4,0    C178.7,229.6,171.4,228.9,170.4,228.4z" class="canChange"></path><path d="M218.5,226.9c-14.4-1.8-18.5,1.1-18.5,1.1s-3.6-2.9-18.4-1.1c-7.9,1-13.2,0.3-13.2,0.3s1.4,3.3,11.6,4.5    c6.9,1,13.6,2.7,20.1,5.1c6.5-2.4,13.2-4.1,20.1-5.1c10.2-1.2,11.8-4.6,11.8-4.6S226.4,227.9,218.5,226.9z"></path><path fill="#742637" d="M218.5,225.7c-14.4-1.8-18.5,1.1-18.5,1.1s-3.6-2.9-18.4-1.1c-7.9,1-13.5,1.4-13.5,1.4s1.7,2.2,11.8,3.4    c6.9,1,13.6,2.7,20.1,5.1c6.5-2.4,13.2-4.1,20.1-5.1c10.2-1.2,11.8-3.4,11.8-3.4S226.4,226.7,218.5,225.7z" class="canChange"></path><path opacity="0.6" fill="#8C2F72" d="M228.3,225.8c2.7,0.6,5.2,2,7.1,3.9c0,0-1.4-4.8-4-5.3S228.3,225.8,228.3,225.8z"></path><path opacity="0.6" fill="#8C2F72" d="M171.7,225.8c-2.7,0.6-5.2,2-7.1,3.9c0,0,1.4-4.8,4-5.3S171.7,225.8,171.7,225.8z"></path><path fill="#FFD9D9" d="M208.7,238.9l2.9,3.4c0,0,7.2-3.4,9.2-6.6L208.7,238.9z"></path><path fill="#24212b" d="M247.4,253.46A44.94,44.94,0,0,0,246,243.7c.1.37-1.35,2.06-1.59,2.41a37,37,0,0,1-3.23,4.68,139.47,139.47,0,0,1-10.94,10.81,69.66,69.66,0,0,1-6.69,5q-1.83,1.22-3.7,2.37c-.87.54-2.22,1.78-3.32,1.68,0,0-9.59-.9-.81-10.43,0,0-10-.44-15.16-.45h-.32c-2.55,0-6.34.12-9.49.23s-5.67.22-5.67.22c8.78,9.53-.81,10.43-.81,10.43-.87.08-2.83-1.49-3.59-1.93a74.89,74.89,0,0,1-12.28-9.36,77.89,77.89,0,0,1-10.36-11q-1.16-1.58-2.25-3.21c-.38-.57-2.16-2.59-2.07-3.24a117.49,117.49,0,0,0-1.07,12.54,113.3,113.3,0,0,0,2.33,27.16c.24.26.47.53.72.78s.27.27.42.4.39.37.6.55c3.49,3,7,5.94,10.32,9.12,2.88,1.74,5.41,3.92,8.29,5.69s6.05,3.84,9.22,5.42A115,115,0,0,0,198.77,305a79.35,79.35,0,0,0,11.68-1.82c4.66-1.14,9.12-2.71,13.7-3.79a61.07,61.07,0,0,0,19-15.92C246,273.43,247.83,262.91,247.4,253.46Z" class="canChange"></path><path fill="#151319" d="M243.14,283.43c-.53,1.9-1.1,3.79-1.69,5.63-2.58,4.49-9.32,14.11-15.41,17.19l-.07,0a17.61,17.61,0,0,0,.7-7,.75.75,0,0,0-.07.12c-3.73,6.32-21.21,14.78-23.9,14.76-8.65-.07-17.53-4.45-29.81-14.33.5,2,1,3.93,1.49,5.89-2.72-1.22-14.69-11.92-18.31-22.83-.15-.42-.27-.84-.39-1.26l0,.86c0,.74,0,1.48,0,2.23-.25-1-.48-2-.7-3a113.3,113.3,0,0,1-2.33-27.16c.88,4,4.88,21,11.84,29.58,0,0-1.79-11.31,2.05-14.49,0,0,3.33,17.29,11.51,24.46-.1-.34-3-10,1.79-13.82,0,0,4.1,17.15,15.11,21.25,0,0-3.84-11-1.79-13.82,0,0,10,13.31,13.56,13.82,0,0,11.26-7.43,11.26-18.94,0,0,5.84,9.91,3.1,14,.64-.84,11-14.6,10.72-24.26,0,0,5.54,4.61,5.11,13.56,0,0,12-24.83,8.71-34.3a22.26,22.26,0,0,1,1.83,1.87C247.83,262.91,246,273.43,243.14,283.43Z" class="canChange"></path><rect fill="#a768c4" x="313.39" y="336.26" width="0.01" height="0.02"></rect><path fill="#a768c4" d="M393.17,400H6.83s4.5-20,5.25-24.64c.32-2,22.42-11,48.1-21C67,351.68,74.05,349,81,346.3l4.16-1.59c8.8-3.35,17.34-6.58,24.93-9.46l3-1.13,2.44-.92,5.8-2.2.79-.3c9-3.42,15.15-5.82,16.55-6.54h0A.93.93,0,0,0,139,324c.3-.24.61-1.5.93-3.5l2.54,2.39,16.88,15.88.11.1,3.09,2.91,6.63,6.22.05.05L190,367.61l1,.94,7.06,6.63,12.28-5.57,21.35-9.68,6.55-3,4.74-2.15,19.66-8.91,7.51-7,3-2.76,5.58-5.18h0l6.29,2.39,3.4,1.29.46.17.39.15,6.84,2.6,4.57,1.73,7.64,2.9h0l1.62.61,2.66,1,4.08,1.56c1.65.62,3.31,1.26,5,1.9l3.37,1.29,4.94,1.9,4.57,1.76c6.86,2.65,13.56,5.27,19.76,7.74l3,1.19,2.89,1.16h0c16,6.48,27.56,11.58,27.79,13,.28,1.7,1,5.42,1.91,9.47.72,3.38,1.52,7,2.15,9.84C392.67,397.79,393.17,400,393.17,400Z"></path><path fill="#b2d950" d="M158.31,400H6.83s4.5-20,5.25-24.64c.32-2,22.42-11,48.1-21,2.83,3.42,4.43,8.39,4.36,15.31-.11,10.19,1.63,15.95,4.59,18.81,11.5,11.08,41.45-21.66,53.53-8.79C128.77,386.17,143.21,393.53,158.31,400Z" class="canChange" style="fill:rgb(0, 16, 197)"></path><rect fill="#bbb8fc" x="313.39" y="336.26" width="0.01" height="0.02"></rect><path fill="#bbb8fc" d="M392,394.67a14.06,14.06,0,0,1-3.2,5.33H294.5c6.41-9.09,17.18-19.66,14.85-29.25a13.45,13.45,0,0,0-4.21-6.73c-8.78-8.15-12.73-6-18.3-.44-7.24,7.18-17.19,20-44,23.13-1.62.19-3.17.3-4.66.33a36.33,36.33,0,0,1-3.64-.06c-.93-.05-1.82-.13-2.68-.25a26.31,26.31,0,0,1-13-5.17,27.7,27.7,0,0,1-8.62-11.95l21.35-9.68,6.55-3,24.4-11.06,7.51-7,3-2.76,5.58-5.18h0c21.1,8,56.64,21.34,81.43,31.36h0a127.53,127.53,0,0,0,18.62,13.22c5.32,3.18,8.92,6.27,11.08,9.25C390.55,388.21,391.35,391.82,392,394.67Z"></path><path fill="#9c63d0" opacity="0.32" d="M160.12,364.67c-.59-.14-13.13-3.22-28.58-5.35C107.37,356,76.09,355,72.44,371.15c-1.63,7.24-2.67,12.9-3.31,17.3A72.56,72.56,0,0,0,68.2,400H6.83s4.5-20,5.25-24.64c.32-2,22.42-11,48.1-21,21.79-8.48,46.16-17.62,62-23.63l9,8.07Z" class="cls-multipy"></path><path fill="#b2d950" d="M118.05,340.43s5.28,13.63,21.13,22.24,49.49,25.86,72.57,23.08,57.55-21.41,69.78-37.81-35.86-.56-35.86-.56l-22.8,12.79-32-3.57-24.18-16.17" class="canChange" style="fill:rgb(0, 16, 197)"></path><path fill="#9c63d0" d="M116.48,341.33s4.21,8.22,19.46,10,29.9-.8,42.34,6.62a64.18,64.18,0,0,0,24.88,8.43s3.61,5.62,7.82,4.81,66.35-13.39,69.09-21.44-20.93-4-20.93-4l-21.07,7.42L210,359.79l-9.19,1.6L186.3,349.93l-43.54-13.42" class="cls-multipy"></path><path fill="#9c63d0" opacity="0.32" d="M393.17,400H322.64c-.12-4.09-.37-8.79-.8-14.15-.53-6.57-5.5-11.46-12.49-15.1-6.41-3.34-14.53-5.62-22.51-7.17a195.07,195.07,0,0,0-25.26-3.09c-3.88-.24-6.27-.27-6.27-.27l15.8-21.35,2-2.69,5.58-5.18h0c21.1,8,56.64,21.34,81.43,31.36h0c16,6.48,27.56,11.58,27.79,13,.28,1.7,1,5.42,1.91,9.47.72,3.38,1.52,7,2.15,9.84C392.67,397.79,393.17,400,393.17,400Z" class="cls-multipy"></path><polygon fill="#ffb0b0" points="169.18 342.61 169.18 400 162.97 400 162.77 374.75 162.5 341.78 162.5 341.25 167.03 342.17 167.04 342.17 169.18 342.61"></polygon><path fill="#9c63d0" d="M169.18,342.61v17.94c-2.16-1.18-4.34-1.56-4.2,1.83.09,2.23.23,7.46.36,13.41.19,9.11.39,19.92.47,24.21H163l-.2-25.25-.27-33v-.53l4.53.92h0Z" class="cls-multipy"></path><polygon fill="#ffb0b0" points="238.21 345.45 238.21 400 232 400 231.89 386.73 231.8 377.03 231.66 359.93 231.59 350.95 231.53 344.15 238.21 345.45"></polygon><path fill="#9c63d0" d="M238.21,345.45v17.08c-2.16-1.13-4.35-1.49-4.2,1.74.09,2,.2,6.48.32,11.68.09,3.53.17,7.39.24,11,.12,5.46.21,10.43.26,13H232l-.11-13.27-.09-9.7-.14-17.1-.07-9-.06-6.8Z" class="cls-multipy"></path><path fill="#45096e" d="M143.71,274.27c-.08,1.27-.16,2.59-.24,3.94-.93,14.92-2.32,34.4-3.59,42.29l2.54,2.39-3.72,1.26h0c-5.69,1.9-12.17,4-19.12,6.15l-3.06,1-5.33-5.19L104.66,291l-.42-2.24,3.93-2a9.19,9.19,0,0,0,1.39,5.91C110.1,286.93,127.75,279.68,143.71,274.27Z"></path><path fill="#45096e" d="M143.79,272.89c0,.27,0,.55,0,.83-2.42.37-4.73.74-6.91,1.1Z"></path><path fill="#bbb8fc" d="M102.06,297s-13.93,29.45-10.5,41.33,14.22,15.19,41,9.88-12.48-7.37-12.48-7.37l-12.79-17"></path><path fill="#b2d950" d="M192.75,358.52l-11.58-5.39-26.09-12.19-10.5.23L125,337.09l-3.48-.72-.88-1-9.46-10.48-.39-.43.16-.14c1.24-1.2,9.67-9.25,17.26-15.57,5.38-4.47,10.32-8.07,12-7.81,4.35.69,4.57,18.72,24,32.42S192.75,358.52,192.75,358.52Z" class="canChange" style="fill:rgb(0, 16, 197)"></path><path fill="#9c63d0" opacity="0.32" d="M185.66,354.24l-4.49-1.11c-11.22-2.84-40.71-10.42-56.18-16-1.62-.58-3.09-1.16-4.36-1.68-2.66-1.13-4.48-2.12-5.15-2.91a28.33,28.33,0,0,1-4.31-7.57c-.09-.19-.16-.39-.23-.57,1.24-1.2,9.67-9.25,17.26-15.57,4.33,5.11,20.59,23.59,35.22,30C180.47,346.21,185.66,354.24,185.66,354.24Z" class="cls-multipy"></path><path fill="#b2d950" d="M201.58,364.6l-1.9.83-2.73,1.2s-.9-.84-2.49-2.19a123.59,123.59,0,0,0-17.18-12.3,72.49,72.49,0,0,0-8.1-4.12l-.05,0a48.84,48.84,0,0,0-6.6-2.3,30.19,30.19,0,0,0-7-1.05c-2.27-.06-4.72-.14-7.28-.29h0c-3.86-.21-8-.56-12.1-1.1A84.11,84.11,0,0,1,117,338.77a35,35,0,0,1-6.92-3.52,21,21,0,0,1-1.89-1.4,14.74,14.74,0,0,1-5.15-7.51c-3.35-12.11-4.61-28.95-2.32-37.4a9.12,9.12,0,0,1,2.32-4.52c3.49-3.08,18.58-12.7,35.79-18.94a15.92,15.92,0,0,1,5.1,4.36c-.05,1-.11,2-.18,3.05,0,.27,0,.55,0,.83h.08a4.73,4.73,0,0,0,0,.53l-.07,0-.14.05-2.87,1c-4,1.4-8.08,2.91-11.87,4.47l-1.41.59c-2.82,1.18-5.46,2.39-7.81,3.61-.34.18-.68.35-1,.54s-.79.42-1.17.64l-.74.43-.79.47-1,.6c-.3.19-.58.39-.86.58a21.25,21.25,0,0,0-2.35,1.9l-.34.33a8,8,0,0,0-1.25,1.57,3.67,3.67,0,0,0-.25.48,2.75,2.75,0,0,0-.15.36l-.06.18a2.29,2.29,0,0,0-.07.28,2.25,2.25,0,0,0-.06.36,2.35,2.35,0,0,0,0,.27v.44c0,6.72.61,19.67,3.93,28.52h0c1.45,3.85,3.42,6.92,6.08,8.37h0a7.45,7.45,0,0,0,1.77.68,7.32,7.32,0,0,0,1.35.21h0c.24,0,.48,0,.72,0,5.49-.17,20.34,2.71,35.66,7.55l.33.1c1.79.57,3.57,1.17,5.36,1.79h0c2.87,1,5.73,2.06,8.5,3.18,3.12,1.26,6.14,2.59,9,4A65.27,65.27,0,0,1,195.31,356h0a23.94,23.94,0,0,1,4.55,4.93l.33.51A11.82,11.82,0,0,1,201.58,364.6Z" class="canChange" style="fill:rgb(0, 16, 197)"></path><path fill="#bbb8fc" d="M144,269.84c-.05,1-.11,2-.18,3.05,0,.08,0,.16,0,.24a4.15,4.15,0,0,0-.14.61,2.86,2.86,0,0,0-.06.58l-2.87,1c-4,1.4-8.08,2.91-11.87,4.47l-1.41.59c-2.82,1.18-5.46,2.39-7.81,3.61-.34.18-.68.35-1,.54s-.79.42-1.17.64l-.74.43-.79.47-1,.6c-.3.19-.58.39-.86.58a21.25,21.25,0,0,0-2.35,1.9l-.34.33a8,8,0,0,0-1.25,1.57,3.67,3.67,0,0,0-.25.48,2.75,2.75,0,0,0-.15.36l-.06.18a2.29,2.29,0,0,0-.07.28,2.25,2.25,0,0,0-.06.36,2.35,2.35,0,0,0,0,.27v.44q-2.7-1.26-4.89-2.39c-1.48-.76-2.78-1.46-3.9-2.08a9.12,9.12,0,0,1,2.32-4.52c3.49-3.08,18.58-12.7,35.79-18.94A15.92,15.92,0,0,1,144,269.84Z"></path><path fill="#9c63d0" opacity="0.59" d="M143.87,273.7l-.13,0c-2.42.37-4.73.74-6.91,1.1l-11,3-17.67,8.93a9.19,9.19,0,0,0,1.39,5.91c.54-5.77,18.19-13,34.15-18.43l.15,0C143.86,274.05,143.86,273.87,143.87,273.7Z" class="cls-multipy"></path><path fill="#9c63d0" opacity="0.59" d="M136.83,274.82l-11,3-17.67,8.93c.46-2.93,3-6,10.1-8.18A175.75,175.75,0,0,1,136.83,274.82Z" class="cls-multipy"></path><path fill="#45096e" d="M299.15,293.22l-2,6.15L287,331c-2.35-.74-4.65-1.46-6.89-2.18-7.36-2.33-14.05-4.5-19.66-6.47a169.3,169.3,0,0,1-2-17c-.91-10.59-1.74-23.57-2.31-33.07h0c-.06-1.09-.13-2.14-.19-3.13l35.27,11.23.1,0,.11.19,3.09,5.1Z"></path><path fill="#b2d950" d="M296.22,319.36l-2.81,7.94-1.17,3.33-1.95,5.52-2.41.76-43.46,13.77-14.65,4.64-26.71,14.17-5.71-6.85s32.88-13.47,37.67-25.35c3.81-9.43,15-19.86,20.29-28.09a18.34,18.34,0,0,0,2.78-5.93c1.83-8.68,15.07,4,22.6,10.5A23,23,0,0,0,291.34,319,17.44,17.44,0,0,0,296.22,319.36Z" class="canChange" style="fill:rgb(0, 16, 197)"></path><path fill="#9c63d0" opacity="0.32" d="M293.72,328.5l-1.48,2.13-4.36,6.28-43.46,13.77-15.75,1.18s.37-.48,6.12-7.18,37.36-13.07,39.76-17.86-21.7,6.12-23,6.68c.81-.5,12.36-7.71,17.56-16.26,4.2-6.93-8.2-7.93-13.85-8a18.34,18.34,0,0,0,2.78-5.93c1.83-8.68,15.07,4,22.6,10.5A23,23,0,0,0,291.34,319l2.07,8.28Z" class="cls-multipy"></path><path fill="#b2d950" d="M314.7,339.59h0a3.22,3.22,0,0,1-.74.58,37.32,37.32,0,0,1-5.67,2.05h0c-7.88,2.41-22,5.87-35.37,8.55-4.25.85-8.42,1.63-12.29,2.27-7.12,1.17-13.23,1.89-17,1.78H243a29.33,29.33,0,0,0-4.74.47,54.8,54.8,0,0,0-6.57,1.64c-13.71,4.23-29.13,13.36-29.13,13.36L191,368.55l-1.88-.29.89-.65c.89-.66,2.42-1.76,4.48-3.17,1.53-1,3.35-2.24,5.41-3.54,1.85-1.18,3.91-2.44,6.13-3.74a178.09,178.09,0,0,1,20.36-10.32h0c1.69-.72,3.42-1.41,5.16-2.07l1.08-.4q2.15-.78,4.32-1.5h0a88.21,88.21,0,0,1,20.57-4.3,36,36,0,0,0,20.36-7.84c.77-.62,1.5-1.27,2.21-1.94a43.79,43.79,0,0,0,8.12-10.59,58.69,58.69,0,0,0,6.39-18.13,30.59,30.59,0,0,0,.52-7,5,5,0,0,0-.13-.89s0-.1-.05-.16l-.06-.16a4.76,4.76,0,0,0-.67-1.08,11.1,11.1,0,0,0-.9-1c-5.24-5.26-21.65-14.22-37.15-17.54h0c-.06-1.09-.13-2.14-.19-3.13,0-.12,0-.24,0-.36.26-.38.54-.78.85-1.18,1.67-2.18,3.93-4.48,6.33-5,10.55,1.7,21.25,4.54,27.71,9.24,11.61,8.47,14.64,16.93,15.61,24.95.1.71.16,1.42.22,2.12s.09,1.2.12,1.8c0,.9.09,1.79.12,2.68s.07,1.76.11,2.63c.17,3.85,1.93,9,3.81,14.13C313.87,328.44,317.23,336.75,314.7,339.59Z" class="canChange" style="fill:rgb(0, 16, 197)"></path><path fill="#bbb8fc" d="M306.45,296.76c-3.13.92-6.23,1.79-9.28,2.61l-2.55.68a30.59,30.59,0,0,0,.52-7,5,5,0,0,0-.13-.89s0-.1-.05-.16l-.06-.16a4.76,4.76,0,0,0-.67-1.08,11.1,11.1,0,0,0-.9-1c-5.24-5.26-21.65-14.22-37.15-17.54h0c-.06-1.09-.13-2.14-.19-3.13,0-.12,0-.24,0-.36.26-.38.54-.78.85-1.18,1.67-2.18,3.93-4.48,6.33-5,10.55,1.7,21.25,4.54,27.71,9.24C302.45,280.28,305.48,288.74,306.45,296.76Z"></path><path fill="#9c63d0" opacity="0.59" d="M295.14,293a6,6,0,0,0-.14-.89s0-.1,0-.16l-.06-.16a4.76,4.76,0,0,0-.67-1.08,11.1,11.1,0,0,0-.9-1c-5.24-5.26-21.65-14.22-37.15-17.54h0c-.06-1.09-.13-2.14-.19-3.13,0-.12,0-.24,0-.36.26-.38.54-.78.85-1.18l.31.1c14.13,5.08,27.64,6.34,34.13,12.67a1.45,1.45,0,0,1,.21.22,12.36,12.36,0,0,1,3.09,5.1A18.12,18.12,0,0,1,295.14,293Z" class="cls-multipy"></path><path fill="#9c63d0" opacity="0.59" d="M310.83,320.12a8.53,8.53,0,0,0-2.58,5.9c.17,5.27-20.14,9.22-20.14,9.22,15.6-7.64,18.25-26.69,18.55-36.36.2,2.41.26,4.79.36,7.11C307.19,309.84,309,315,310.83,320.12Z" class="cls-multipy"></path><path fill="#d177b8" opacity="0.6" d="M220.2,201.94s-.08,2.65-1.09,3.17-2.53-1.14-4.69-1c-1,.08-4.57.47-15.12.47s-12.69,0-14.24-.37c-2.13-.51-3.17,1.39-4.17.88s-1.09-3.17-1.09-3.17l0,3.52s1.62,1.64,8.35,8.68c5.42,5.66,17.84,5.44,23.6-1.12s8.51-7.56,8.51-7.56Z" class="canChange cls-multipy"></path><path fill="#dd93f4" opacity="0.6" d="M215.84,193.59s-.83-1.4-1.83-.79S212.37,205,212.37,205s-1.46-12.47,0-15.69A12.1,12.1,0,0,1,215.84,193.59Z" class="canChange cls-multipy"></path><path fill="#dd93f4" opacity="0.6" d="M184,193.59s.83-1.4,1.84-.79S187.47,205,187.47,205s1.46-12.47,0-15.69A12.22,12.22,0,0,0,184,193.59Z" class="canChange cls-multipy"></path><path fill="#401a35" opacity="0.6" d="M210.73,209.82s3.24-3.74,4.51-4.36S219,206,219,206a11.82,11.82,0,0,0-2.77,1.49C214.9,208.44,212.26,210,210.73,209.82Z" class="cls-multipy"></path><path fill="#401a35" opacity="0.6" d="M181.83,206.39s1.19-1.9,3-1.44,4.19,4.88,4.19,4.88-2.57-1-4-1.69S181.83,206.39,181.83,206.39Z" class="cls-multipy"></path></svg>