<?xml version="1.0" standalone="no"?><!DOCTYPE svg PUBLIC "-//W3C//DTD SVG 1.1//EN" "http://www.w3.org/Graphics/SVG/1.1/DTD/svg11.dtd"><svg height="1366" node-id="1" sillyvg="true" template-height="1366" template-width="1366" version="1.1" viewBox="0 0 1366 1366" width="1366" xmlns="http://www.w3.org/2000/svg" xmlns:xlink="http://www.w3.org/1999/xlink"><defs node-id="19"></defs><path d="M 1075.00 683.00 L 1074.50 702.20 L 1073.10 721.40 L 1070.80 740.50 L 1067.50 759.50 L 1063.30 778.30 L 1058.10 796.80 L 1052.10 815.10 L 1045.10 833.00 L 1037.30 850.60 L 1028.70 867.80 L 1019.20 884.50 L 1008.90 900.70 L 997.80 916.50 L 986.00 931.60 L 973.40 946.20 L 960.20 960.10 L 946.30 973.40 L 931.70 985.90 L 916.50 997.70 L 900.80 1008.80 L 884.50 1019.10 L 867.80 1028.60 L 850.60 1037.20 L 833.00 1045.00 L 824.10 1048.60 L 806.00 1055.10 L 787.60 1060.60 L 768.90 1065.30 L 750.10 1069.10 L 731.00 1071.90 L 711.90 1073.80 L 692.70 1074.80 L 673.50 1074.80 L 654.30 1073.80 L 635.10 1071.90 L 616.10 1069.10 L 597.20 1065.40 L 578.50 1060.70 L 560.20 1055.10 L 542.10 1048.60 L 524.30 1041.20 L 506.90 1033.00 L 489.90 1023.90 L 473.40 1014.00 L 457.40 1003.30 L 442.00 991.90 L 427.10 979.70 L 412.90 966.80 L 399.30 953.20 L 386.40 939.00 L 374.20 924.10 L 362.70 908.60 L 352.00 892.60 L 342.10 876.20 L 333.10 859.20 L 324.80 841.80 L 317.50 824.10 L 311.00 806.00 L 305.40 787.60 L 300.80 768.90 L 297.00 750.00 L 294.20 730.90 L 292.30 711.80 L 291.40 692.60 L 291.30 673.40 L 292.30 654.20 L 294.20 635.00 L 297.00 616.00 L 300.70 597.10 L 305.40 578.40 L 311.00 560.00 L 317.40 541.90 L 324.80 524.20 L 328.90 515.40 L 337.50 498.20 L 347.00 481.50 L 357.30 465.30 L 368.40 449.60 L 374.20 441.90 L 386.40 427.00 L 399.30 412.80 L 412.90 399.20 L 427.10 386.30 L 442.00 374.10 L 457.40 362.60 L 473.40 351.90 L 489.90 342.00 L 506.90 333.00 L 524.30 324.80 L 542.10 317.40 L 560.20 311.00 L 578.60 305.40 L 597.20 300.70 L 616.10 297.00 L 625.60 295.50 L 644.70 293.00 L 663.90 291.60 L 673.50 291.20 L 692.70 291.20 L 711.90 292.20 L 731.10 294.10 L 750.10 296.90 L 769.00 300.60 L 787.60 305.30 L 806.00 310.90 L 824.10 317.30 L 841.90 324.80 L 859.30 333.00 L 876.20 342.10 L 892.70 352.00 L 908.70 362.70 L 924.20 374.10 L 939.10 386.30 L 953.30 399.20 L 966.90 412.80 L 979.80 427.10 L 992.00 441.90 L 1003.50 457.30 L 1014.20 473.40 L 1024.00 489.80 L 1033.10 506.80 L 1041.30 524.20 L 1048.70 542.00 L 1055.20 560.10 L 1060.70 578.50 L 1065.40 597.10 L 1069.10 616.00 L 1072.00 635.10 L 1073.80 654.20 L 1074.40 663.80 L 1075.00 683.00 Z" fill="#eff0f9" fill-rule="nonzero" node-id="21" stroke="none" target-height="783.60004" target-width="783.7" target-x="291.3" target-y="291.2"></path><path d="M 334.10 958.50 L 334.30 961.90 L 335.00 965.10 L 336.00 968.10 L 337.40 970.90 L 341.30 975.80 L 343.60 977.90 L 346.20 979.60 L 349.00 981.10 L 352.00 982.10 L 355.20 982.80 L 358.60 983.00 L 823.90 983.00 L 823.90 493.20 L 334.10 493.20 Z" fill="#ffffff" fill-rule="nonzero" node-id="23" stroke="none" target-height="489.8" target-width="489.80002" target-x="334.1" target-y="493.2"></path><path d="M 334.10 958.50 L 334.30 961.90 L 335.00 965.10 L 336.00 968.10 L 337.40 970.90 L 341.30 975.80 L 343.60 977.90 L 346.20 979.60 L 349.00 981.10 L 352.00 982.10 L 355.20 982.80 L 358.60 983.00 L 823.90 983.00 L 823.90 493.20 L 334.10 493.20 Z M 358.60 976.90 L 817.80 976.90 L 817.80 499.30 L 340.20 499.30 L 340.20 958.50 L 340.50 961.90 L 341.40 965.00 L 342.70 967.80 L 344.50 970.40 L 346.70 972.60 L 349.30 974.40 L 352.10 975.70 L 355.20 976.60 L 358.60 976.90 Z" fill="#000000" fill-rule="evenodd" node-id="25" stroke="none" target-height="489.8" target-width="489.80002" target-x="334.1" target-y="493.2"></path><path d="M 655.50 900.40 L 499.40 900.40 L 499.40 894.20 L 655.50 894.20 Z" fill="#000000" fill-rule="evenodd" node-id="27" stroke="none" target-height="6.200012" target-width="156.1" target-x="499.4" target-y="894.2"></path><path d="M 253.70 733.00 L 252.70 736.80 L 252.30 740.70 L 252.60 744.50 L 253.40 748.30 L 254.80 751.90 L 256.80 755.30 L 259.40 758.30 L 262.30 760.90 L 265.60 762.90 L 269.10 764.40 L 272.90 765.30 L 276.80 765.60 L 337.10 765.60 L 337.10 496.30 Z" fill="#2936ff" fill-rule="nonzero" node-id="29" stroke="none" target-height="269.3" target-width="84.8" target-x="252.3" target-y="496.3"></path><path d="M 250.90 732.00 L 334.30 495.20 L 334.80 494.30 L 336.60 493.20 L 338.70 493.60 L 340.00 495.10 L 340.20 496.20 L 340.20 765.70 L 340.00 766.80 L 339.30 767.80 L 338.30 768.50 L 337.10 768.70 L 276.80 768.70 L 273.50 768.50 L 267.20 767.00 L 261.40 764.00 L 258.80 762.00 L 254.30 757.10 L 251.30 751.50 L 249.60 745.30 L 249.30 741.90 L 249.40 738.60 L 249.90 735.30 L 250.90 732.00 Z M 256.60 734.00 L 255.70 737.40 L 255.40 740.70 L 255.60 744.10 L 256.30 747.40 L 257.60 750.50 L 259.30 753.50 L 261.60 756.20 L 264.10 758.40 L 267.00 760.20 L 270.10 761.50 L 273.40 762.30 L 276.80 762.60 L 334.10 762.60 L 334.10 514.20 Z" fill="#000000" fill-rule="evenodd" node-id="31" stroke="none" target-height="275.5" target-width="90.90001" target-x="249.3" target-y="493.2"></path><path d="M 817.80 493.20 L 1032.10 493.20 L 1032.10 958.50 L 1031.90 961.90 L 1031.20 965.10 L 1030.20 968.10 L 1028.70 970.90 L 1027.00 973.50 L 1022.60 977.90 L 1020.00 979.70 L 1017.10 981.10 L 1014.10 982.20 L 1011.00 982.80 L 1007.60 983.00 L 817.80 983.00 Z" fill="#ffffff" fill-rule="nonzero" node-id="33" stroke="none" target-height="489.8" target-width="214.29999" target-x="817.8" target-y="493.2"></path><path d="M 817.80 493.20 L 1032.10 493.20 L 1032.10 958.50 L 1031.90 961.90 L 1031.20 965.10 L 1030.20 968.10 L 1028.70 970.90 L 1027.00 973.50 L 1022.60 977.90 L 1020.00 979.70 L 1017.10 981.10 L 1014.10 982.20 L 1011.00 982.80 L 1007.60 983.00 L 817.80 983.00 Z M 823.90 499.30 L 1026.00 499.30 L 1026.00 958.50 L 1025.70 961.90 L 1024.90 965.00 L 1023.50 967.80 L 1021.70 970.40 L 1019.50 972.60 L 1016.90 974.40 L 1014.10 975.80 L 1011.00 976.60 L 1007.60 976.90 L 823.90 976.90 Z" fill="#000000" fill-rule="evenodd" node-id="35" stroke="none" target-height="489.8" target-width="214.29999" target-x="817.8" target-y="493.2"></path><path d="M 1118.40 736.00 L 1119.50 739.80 L 1119.90 743.70 L 1119.60 747.50 L 1118.80 751.30 L 1117.40 754.90 L 1115.40 758.30 L 1112.80 761.40 L 1109.90 763.90 L 1106.60 766.00 L 1103.10 767.50 L 1099.30 768.40 L 1095.40 768.70 L 933.10 768.70 L 929.60 768.50 L 926.40 767.80 L 923.20 766.60 L 920.30 765.10 L 917.60 763.20 L 915.20 761.00 L 913.10 758.40 L 911.40 755.60 L 910.00 752.40 L 817.80 493.20 L 1032.10 493.20 Z" fill="#ffffff" fill-rule="nonzero" node-id="37" stroke="none" target-height="275.5" target-width="302.10004" target-x="817.8" target-y="493.2"></path><path d="M 1032.10 493.20 L 817.80 493.20 L 910.00 752.40 L 911.40 755.60 L 913.10 758.40 L 915.20 761.00 L 917.60 763.30 L 920.30 765.10 L 923.20 766.70 L 926.30 767.80 L 929.60 768.50 L 933.10 768.70 L 1095.40 768.70 L 1099.30 768.40 L 1103.10 767.50 L 1106.60 766.00 L 1109.90 763.90 L 1112.80 761.40 L 1115.40 758.30 L 1117.40 754.90 L 1118.80 751.30 L 1119.60 747.60 L 1119.90 743.70 L 1119.50 739.90 L 1118.40 736.00 Z M 1110.40 754.80 L 1112.00 752.30 L 1113.10 749.60 L 1113.70 746.70 L 1113.80 743.80 L 1113.50 741.00 L 1112.70 738.10 L 1027.80 499.30 L 826.50 499.30 L 915.70 750.40 L 918.10 754.90 L 921.50 758.50 L 925.70 761.10 L 928.00 761.90 L 933.10 762.60 L 1095.40 762.60 L 1098.40 762.40 L 1101.20 761.80 L 1103.90 760.70 L 1106.30 759.10 L 1108.50 757.20 L 1110.40 754.80 Z" fill="#000000" fill-rule="evenodd" node-id="39" stroke="none" target-height="275.5" target-width="302.10004" target-x="817.8" target-y="493.2"></path><path d="M 925.00 364.60 L 924.60 369.20 L 923.70 373.60 L 922.30 377.70 L 920.30 381.60 L 917.90 385.20 L 915.10 388.40 L 911.80 391.30 L 908.30 393.70 L 904.40 395.60 L 900.30 397.10 L 895.90 398.00 L 891.30 398.30 L 886.60 398.00 L 882.30 397.10 L 878.20 395.60 L 874.30 393.70 L 870.70 391.30 L 867.50 388.40 L 864.60 385.20 L 862.20 381.60 L 860.20 377.70 L 858.80 373.60 L 857.90 369.20 L 857.60 364.60 L 857.90 360.00 L 858.80 355.60 L 860.20 351.50 L 862.20 347.60 L 864.60 344.00 L 867.50 340.80 L 870.70 337.90 L 874.30 335.50 L 878.20 333.60 L 882.30 332.10 L 886.60 331.30 L 891.30 330.90 L 895.90 331.30 L 900.30 332.10 L 904.40 333.60 L 908.30 335.50 L 911.80 337.90 L 915.10 340.80 L 917.90 344.00 L 920.30 347.60 L 922.30 351.50 L 923.70 355.60 L 924.60 360.00 L 925.00 364.60 Z" fill="none" node-id="41" stroke="#000000" stroke-linecap="butt" stroke-width="1" target-height="67.399994" target-width="67.400024" target-x="857.6" target-y="330.9"></path><path d="M 432.00 312.60 L 431.80 315.50 L 430.40 320.90 L 429.10 323.40 L 427.00 326.40 L 424.40 328.90 L 421.40 331.10 L 419.00 332.30 L 413.60 333.80 L 410.60 334.00 L 407.70 333.80 L 402.30 332.30 L 399.80 331.10 L 396.80 328.90 L 394.20 326.40 L 392.10 323.40 L 390.00 318.30 L 389.40 315.50 L 389.20 312.60 L 390.00 306.80 L 392.10 301.70 L 394.20 298.70 L 396.80 296.20 L 399.80 294.10 L 402.30 292.80 L 407.70 291.30 L 410.60 291.10 L 413.60 291.30 L 419.00 292.80 L 421.40 294.10 L 424.40 296.20 L 427.00 298.70 L 429.10 301.70 L 430.40 304.20 L 431.80 309.60 L 432.00 312.60 Z" fill="#2936ff" fill-rule="nonzero" node-id="43" stroke="none" target-height="42.899994" target-width="42.799988" target-x="389.2" target-y="291.1"></path><path d="M 646.40 438.10 L 645.60 442.40 L 644.70 444.30 L 642.00 447.40 L 638.40 449.60 L 634.10 450.30 L 629.80 449.60 L 626.20 447.40 L 623.50 444.30 L 622.10 440.30 L 621.90 438.10 L 622.10 435.80 L 622.60 433.80 L 624.70 430.20 L 627.90 427.50 L 629.80 426.60 L 634.10 425.80 L 638.40 426.60 L 642.00 428.70 L 644.70 431.90 L 645.60 433.80 L 646.40 438.10 Z" fill="#2936ff" fill-rule="nonzero" node-id="45" stroke="none" target-height="24.5" target-width="24.5" target-x="621.9" target-y="425.8"></path></svg>