<?xml version="1.0" encoding="UTF-8"?>
<svg width="37px" height="40px" viewBox="0 0 37 40" version="1.1" xmlns="http://www.w3.org/2000/svg" xmlns:xlink="http://www.w3.org/1999/xlink">
    <title>recive-task-icon</title>
    <g id="页面-1" stroke="none" stroke-width="1" fill="none" fill-rule="evenodd">
        <g id="Apple-TV-4K" transform="translate(-1176.000000, -1549.000000)" fill-rule="nonzero">
            <g id="recive-task-icon" transform="translate(1176.000000, 1549.000000)">
                <path d="M20,0 L36.4044944,0 L36.4044944,0 L36.4044944,40 L20,40 C8.95430499,40 0,31.045695 0,20 C0,8.95430499 8.95430499,0 20,0 Z" id="矩形" fill-opacity="0.15" fill="#CBCBCB"></path>
                <path d="M19.7752809,1.79775281 L36.4044944,1.79775281 L36.4044944,1.79775281 L36.4044944,37.752809 L19.7752809,37.752809 C9.84656629,37.752809 1.79775281,29.7039955 1.79775281,19.7752809 C1.79775281,9.84656629 9.84656629,1.79775281 19.7752809,1.79775281 Z" id="矩形" fill="#FFFFFF"></path>
                <circle id="椭圆形" stroke="#009AE0" fill="#A7E4FF" cx="20" cy="20" r="9.66292135"></circle>
                <g id="雷达" transform="translate(15.000000, 15.000000)" fill="#009AE0">
                    <path d="M9.55793941,2.07101881 C9.21705743,1.2516987 8.55531485,0.589126218 7.74170031,0.252912435 C7.32571226,0.0850648879 6.89520094,0 6.46219991,0 C5.98282815,0 5.49681717,0.107057274 5.05261248,0.311835431 C4.98922876,0.346587549 4.67168776,0.520763094 4.64419728,0.538191023 C4.51691116,0.620869944 4.48008429,0.786539 4.56110341,0.916418561 C4.64274495,1.0418374 4.80789532,1.07773063 4.93767114,0.997956368 L4.93922721,0.997022729 C5.38529918,0.70645352 5.92629112,0.546490036 6.46230365,0.546490036 C6.8455106,0.546490036 7.20610273,0.618172765 7.53495114,0.759982157 C8.21495156,1.04038507 8.76922192,1.59486291 9.05564162,2.28077637 C9.19423514,2.62093219 9.26456928,2.98100563 9.26456928,3.35134911 C9.26456928,3.76100916 9.17701469,4.16849072 9.01259049,4.52711184 C8.96196651,4.62638879 8.89391459,4.75554218 8.81714872,4.87338818 C8.77814336,4.93106632 8.76444998,5.00586118 8.77969942,5.07858128 C8.7950526,5.15182008 8.83810373,5.21541127 8.89702672,5.25244562 C8.94256756,5.28211459 8.99371023,5.29643039 9.04454169,5.29643039 C9.13240749,5.29643039 9.21954714,5.25358673 9.27598043,5.17339751 C9.37494616,5.01519757 9.44745879,4.88262083 9.50378835,4.75689077 C9.70483195,4.32368227 9.81105932,3.8376713 9.81105932,3.35145285 C9.81105932,2.89946783 9.72578696,2.46864529 9.55793941,2.07101881 L9.55793941,2.07101881 Z" id="路径"></path>
                    <path d="M4.7971066,6.28525784 L5.91425755,4.47513927 C6.05845291,4.53727813 6.21820892,4.57099287 6.37091077,4.57099287 C6.66365847,4.57099287 6.94592866,4.45283567 7.16595626,4.23799496 C7.37488392,4.03166074 7.49459719,3.74181769 7.49459719,3.44263826 C7.49459719,3.14211023 7.37789231,2.8613961 7.16626747,2.65226096 C6.96823226,2.45422575 6.71283012,2.3381433 6.44082996,2.32113033 L6.44082996,2.31677334 L6.37091077,2.31677334 C6.07276871,2.31677334 5.78292566,2.43555297 5.57586528,2.6427171 C5.36092083,2.85766155 5.24255615,3.14169528 5.24255615,3.44263826 C5.24255615,3.59876345 5.27616715,3.75281388 5.342663,3.90167744 L3.52590522,5.01167049 L1.08267566,2.57321286 C1.05186557,2.54209156 1.00985181,2.51117773 0.962132485,2.48596948 C0.754242198,2.3962364 0.512429694,2.49032646 0.423111562,2.69458593 C-0.148379252,3.96723964 -0.140702665,5.39114288 0.444688997,6.70425428 C1.00808827,7.96041371 2.04774718,8.99986514 3.29716366,9.55631399 C3.96315949,9.85196635 4.65768318,10 5.34629382,10 C6.00409437,10 6.65650057,9.86493356 7.27301353,9.59448946 C7.33878321,9.57467556 7.39386791,9.54013092 7.43276954,9.49427887 C7.50974289,9.41740926 7.55217159,9.31574634 7.55227533,9.20775543 C7.55227533,9.09841593 7.50901672,8.9956119 7.43069479,8.91863855 L4.7971066,6.28525784 Z M6.37091077,2.86544187 C6.5233014,2.86544187 6.67206122,2.92571346 6.77766616,3.02924365 C6.88596829,3.14179902 6.94810715,3.29252985 6.94810715,3.44263826 C6.94810715,3.59596253 6.88793931,3.74078031 6.77766616,3.85115719 C6.67299486,3.95997801 6.52475373,4.02232435 6.37091077,4.02232435 C6.21385194,4.02232435 6.06747809,3.9613266 5.9584498,3.85011982 C5.85066636,3.74233638 5.79122468,3.59751859 5.79122468,3.44263826 C5.79122468,3.29076631 5.85253364,3.14013922 5.95741242,3.03111093 C6.0686192,2.92426113 6.21551174,2.86544187 6.37091077,2.86544187 L6.37091077,2.86544187 Z M3.91751491,5.40784464 L5.10925325,4.70419204 L4.40560064,5.89385562 L3.91751491,5.40784464 L3.91751491,5.40784464 Z M3.6332737,8.81541957 C2.5586552,8.33283193 1.66837853,7.442659 1.19066657,6.37301991 C0.784637335,5.46624895 0.705174281,4.51072129 0.958605405,3.60156436 L6.40151338,9.04467981 C5.49349757,9.29437638 4.53900728,9.21584697 3.6332737,8.81541957 L3.6332737,8.81541957 Z" id="形状"></path>
                    <path d="M8.27594931,2.59468656 C8.17708731,2.35733477 8.03517418,2.14529498 7.85415195,1.96416901 C7.66981011,1.78013839 7.44926383,1.63023746 7.21429801,1.53002687 C6.96792105,1.43417326 6.71480114,1.38562403 6.46230365,1.38562403 C6.39788256,1.38562403 6.33812966,1.3888399 6.27993283,1.39527164 L6.26935159,1.39537537 C6.13241787,1.40616409 6.0008785,1.43904893 5.89029415,1.46985902 L5.88375868,1.47203751 C5.86363357,1.47981784 5.84402715,1.486872 5.82483568,1.49361495 C5.78417052,1.50813822 5.7455801,1.52183159 5.7073009,1.54081559 C5.64070132,1.5675799 5.58872875,1.61810015 5.56082332,1.68355862 C5.53219172,1.75078063 5.53219172,1.82547175 5.5605121,1.89331618 C5.58883249,1.96250921 5.64215365,2.01603784 5.71082798,2.04404701 C5.77919111,2.07205618 5.85429718,2.07122628 5.92234909,2.04186852 C6.04953147,1.98709503 6.18003346,1.95255039 6.31790082,1.93667853 C6.33937452,1.93667853 6.36147064,1.93564115 6.38481161,1.93450004 C6.40877502,1.93325518 6.43429448,1.93201033 6.46230365,1.93201033 C6.64872024,1.93201033 6.83658916,1.96925216 7.00547408,2.03969003 C7.17705619,2.11158024 7.33629351,2.21936367 7.46710671,2.35225163 C7.60206941,2.48472463 7.70705193,2.64167972 7.77064312,2.80620766 L7.77593374,2.81990103 L7.78112063,2.82508792 C7.91649829,3.16980819 7.91317868,3.55944687 7.77105807,3.89721672 C7.74273769,3.96672096 7.7430489,4.04172329 7.77188798,4.10842661 C7.80000469,4.17361285 7.85322609,4.2247024 7.91950668,4.25013227 C7.95374011,4.26444806 7.98973708,4.27160596 8.02573405,4.27160596 C8.06058991,4.27160596 8.09544576,4.26496675 8.12874555,4.25148086 C8.19679746,4.22399037 8.24991115,4.17181033 8.2789577,4.10209861 C8.28974642,4.0731558 8.30012018,4.04421299 8.31028647,4.01527018 C8.32045277,3.98653485 8.33072279,3.95769578 8.34306758,3.92449973 C8.47325835,3.49284729 8.45199213,3.02530162 8.28300347,2.60796498 L8.27594931,2.59468656 L8.27594931,2.59468656 Z" id="路径"></path>
                </g>
            </g>
        </g>
    </g>
</svg>